<svg viewBox="0 0 384.5359 335.5518" width="5000px" height="4363.07504988702px" xmlns="http://www.w3.org/2000/svg" xmlns:xlink="http://www.w3.org/1999/xlink" preserveAspectRatio="none"><defs></defs><style>.a6izo4zJpcolor {fill:#B1B1B1;fill-opacity:1;}.aDFQBjvS2colors-0 {fill:#BFBFBF;fill-opacity:1;}.aKej0kaogpcolor {fill:#636363;fill-opacity:1;}.companyName {fill:#636363;fill-opacity:1;}</style><g opacity="1" transform="rotate(0 0 281.5629)">
        <svg width="384.5359" height="53.9889" x="0" y="281.5629" version="1.1" preserveAspectRatio="none" viewBox="1.5625 -33.6328 389.4726 54.668000000000006">
          <g transform="matrix(1 0 0 1 0 0)" class="a6izo4zJpcolor"><path d="M26.02-1.04L26.02-1.04Q29.41-3.69 32.14-6.68Q34.86-9.67 36.77-12.72Q38.67-15.78 39.69-18.82Q40.70-21.86 40.70-24.61L40.70-24.61Q40.70-26.21 40.36-27.60Q40.02-28.98 39.38-29.99Q38.73-31.00 37.82-31.57Q36.91-32.15 35.78-32.15L35.78-32.15L35.41-32.15Q35.08-32.15 34.85-32.34Q34.63-32.54 34.63-32.87L34.63-32.87Q34.63-33.34 34.97-33.49Q35.31-33.63 35.74-33.63L35.74-33.63Q37.17-33.63 38.36-32.97Q39.55-32.30 40.39-31.11Q41.23-29.92 41.70-28.30Q42.17-26.68 42.17-24.79L42.17-24.79Q42.17-21.70 41.10-18.45Q40.04-15.20 37.96-11.90Q35.88-8.61 32.80-5.35Q29.73-2.09 25.72 1.02L25.72 1.02Q25.63 1.09 25.47 1.19Q25.31 1.29 25.10 1.29L25.10 1.29Q24.73 1.29 24.55 1.04Q24.38 0.80 24.38 0.47L24.38 0.47Q24.38 0.33 24.40-0.10Q24.43-0.53 24.47-1.15Q24.51-1.78 24.57-2.53Q24.63-3.28 24.67-4.05Q24.71-4.82 24.74-5.55Q24.77-6.27 24.77-6.84L24.77-6.84Q24.79-11.11 24.12-14.74Q23.46-18.36 22.01-21.02Q20.57-23.67 18.29-25.17Q16.02-26.66 12.79-26.66L12.79-26.66Q10.39-26.66 8.56-26.01Q6.74-25.35 5.51-24.28Q4.28-23.20 3.65-21.85Q3.03-20.49 3.03-19.08L3.03-19.08Q3.03-17.83 3.45-16.85Q3.87-15.86 4.60-15.17Q5.33-14.47 6.33-14.11Q7.32-13.75 8.48-13.75L8.48-13.75Q9.45-13.75 10.25-13.96Q11.05-14.18 11.62-14.44Q12.19-14.71 12.51-14.93Q12.83-15.16 12.87-15.20L12.87-15.20Q12.97-15.29 13.10-15.32Q13.22-15.35 13.34-15.35L13.34-15.35Q13.63-15.35 13.85-15.17Q14.06-14.98 14.06-14.67L14.06-14.67Q14.06-14.30 13.81-14.10L13.81-14.10Q13.77-14.06 13.38-13.78Q12.99-13.50 12.29-13.17Q11.60-12.85 10.63-12.58Q9.65-12.30 8.46-12.30L8.46-12.30Q6.99-12.30 5.72-12.79Q4.45-13.28 3.54-14.18Q2.62-15.08 2.09-16.32Q1.56-17.56 1.56-19.06L1.56-19.06Q1.56-20.74 2.29-22.36Q3.01-23.98 4.42-25.25Q5.84-26.52 7.92-27.29Q10-28.07 12.73-28.07L12.73-28.07Q16.27-28.07 18.82-26.53Q21.37-25 23.02-22.21Q24.67-19.41 25.46-15.48Q26.25-11.54 26.25-6.74L26.25-6.74Q26.25-5.39 26.19-3.96Q26.13-2.52 26.02-1.04Z M51.58-2.15L51.58-2.15Q51.09-2.15 50.72-2.23L50.72-2.23Q50.43-1.64 50.02-1.14Q49.61-0.64 49.07-0.27Q48.53 0.10 47.87 0.31Q47.20 0.53 46.42 0.53L46.42 0.53Q45.51 0.53 44.74 0.21Q43.98-0.12 43.42-0.69Q42.85-1.27 42.54-2.08Q42.22-2.89 42.22-3.87L42.22-3.87Q42.22-5.12 42.67-6.04Q43.12-6.97 43.71-7.59Q44.29-8.20 44.88-8.51Q45.47-8.81 45.76-8.81L45.76-8.81Q46.09-8.81 46.26-8.63Q46.42-8.46 46.42-8.16L46.42-8.16Q46.42-7.83 46.22-7.67Q46.01-7.50 45.70-7.34L45.70-7.34Q45.39-7.19 45.04-6.90Q44.69-6.62 44.38-6.19Q44.08-5.76 43.88-5.18Q43.69-4.59 43.69-3.87L43.69-3.87Q43.69-3.22 43.88-2.67Q44.08-2.11 44.45-1.71Q44.82-1.31 45.33-1.08Q45.84-0.86 46.46-0.86L46.46-0.86Q47.58-0.86 48.31-1.38Q49.04-1.89 49.43-2.70L49.43-2.70Q48.28-3.30 47.54-4.41Q46.79-5.53 46.79-6.91L46.79-6.91Q46.79-8.03 47.33-8.73Q47.87-9.43 48.75-9.43L48.75-9.43Q49.27-9.43 49.74-9.18Q50.21-8.93 50.57-8.38Q50.94-7.83 51.15-6.97Q51.36-6.11 51.36-4.92L51.36-4.92Q51.36-4.30 51.21-3.61L51.21-3.61Q51.33-3.59 51.44-3.59Q51.56-3.59 51.70-3.59L51.70-3.59Q52.36-3.59 52.89-3.75Q53.42-3.91 53.85-4.22Q54.27-4.53 54.62-5.02Q54.96-5.51 55.27-6.15L55.27-6.15Q55.33-6.27 55.52-6.38Q55.72-6.48 55.92-6.48L55.92-6.48Q56.17-6.48 56.39-6.28Q56.62-6.07 56.62-5.74L56.62-5.74Q56.62-5.59 56.54-5.40Q56.46-5.21 56.38-5.06L56.38-5.06Q56.05-4.47 55.61-3.94Q55.17-3.40 54.58-3.00Q53.98-2.60 53.24-2.36Q52.50-2.13 51.58-2.15ZM48.24-7.07L48.24-7.07Q48.24-6.70 48.34-6.29Q48.44-5.88 48.64-5.48Q48.85-5.08 49.15-4.72Q49.45-4.36 49.86-4.10L49.86-4.10Q49.92-4.51 49.92-4.90L49.92-4.90Q49.92-5.43 49.84-5.98Q49.76-6.52 49.62-6.98Q49.47-7.44 49.26-7.72Q49.04-8.01 48.75-8.01L48.75-8.01Q48.63-8.01 48.44-7.83Q48.24-7.66 48.24-7.07Z M64.10-2.19L64.10-2.19Q63.41-1.07 62.51-0.43Q61.60 0.21 60.68 0.21L60.68 0.21Q59.94 0.21 59.35-0.06Q58.76-0.33 58.34-0.83Q57.91-1.33 57.68-2.03Q57.46-2.73 57.46-3.61L57.46-3.61Q57.46-4.98 57.72-6.04Q57.98-7.09 58.30-7.80Q58.61-8.52 58.88-8.89Q59.16-9.26 59.16-9.26L59.16-9.26Q59.25-9.38 59.40-9.43Q59.55-9.49 59.70-9.49L59.70-9.49Q60.01-9.49 60.22-9.27Q60.42-9.04 60.42-8.75L60.42-8.75Q60.42-8.63 60.38-8.52Q60.33-8.40 60.27-8.28L60.27-8.28Q60.17-8.11 59.96-7.74Q59.74-7.38 59.51-6.80Q59.27-6.21 59.10-5.42Q58.92-4.63 58.92-3.61L58.92-3.61Q58.92-2.46 59.38-1.87Q59.84-1.27 60.68-1.27L60.68-1.27Q61.03-1.27 61.49-1.49Q61.95-1.72 62.39-2.19Q62.83-2.66 63.16-3.38Q63.49-4.10 63.59-5.08L63.59-5.08L63.88-8.44Q63.92-8.73 64.14-8.93Q64.35-9.12 64.64-9.12L64.64-9.12Q64.98-9.12 65.17-8.88Q65.37-8.63 65.37-8.32L65.37-8.32L65.11-5.08Q65.07-4.67 65.14-4.00Q65.21-3.34 65.42-2.70Q65.64-2.05 66.07-1.59Q66.50-1.13 67.20-1.13L67.20-1.13Q67.71-1.13 68.20-1.40Q68.69-1.66 69.14-2.09Q69.59-2.52 69.97-3.06Q70.35-3.59 70.67-4.14Q70.99-4.69 71.23-5.19Q71.46-5.68 71.62-6.04L71.62-6.04Q71.71-6.25 71.89-6.37Q72.07-6.48 72.28-6.48L72.28-6.48Q72.63-6.48 72.83-6.25Q73.02-6.02 73.02-5.74L73.02-5.74Q73.02-5.59 72.96-5.45L72.96-5.45Q72.89-5.29 72.66-4.79Q72.44-4.30 72.08-3.66Q71.71-3.03 71.21-2.32Q70.70-1.62 70.07-1.03Q69.45-0.43 68.72-0.05Q67.98 0.33 67.14 0.33L67.14 0.33Q65.99 0.33 65.23-0.32Q64.47-0.98 64.10-2.19Z M76.18-7.23L76.18-7.23Q76.07-6.91 75.90-6.52Q75.74-6.13 75.52-5.70L75.52-5.70Q75.34-5.37 75.16-5.19Q74.97-5 74.68-5L74.68-5Q74.35-5 74.15-5.21Q73.96-5.41 73.96-5.68L73.96-5.68Q73.96-5.78 73.98-5.85Q74.00-5.92 74.08-6.07L74.08-6.07Q74.58-7.05 74.83-7.78Q75.07-8.52 75.23-9.32L75.23-9.32Q75.09-9.77 75.03-10.08Q74.97-10.39 74.97-10.72L74.97-10.72Q74.97-11.37 75.25-11.77Q75.52-12.17 76.01-12.17L76.01-12.17Q76.46-12.17 76.72-11.78Q76.99-11.39 76.99-10.82L76.99-10.82Q76.99-10.51 76.93-10.20Q76.87-9.88 76.77-9.41L76.77-9.41Q77.22-8.30 77.67-7.44Q78.12-6.58 78.47-5.87Q78.82-5.16 79.05-4.53Q79.27-3.91 79.27-3.28L79.27-3.28Q79.27-2.46 78.94-1.72Q78.61-0.98 77.84-0.47L77.84-0.47Q77.94-0.45 78.04-0.45Q78.14-0.45 78.24-0.45L78.24-0.45Q79.35-0.45 80.29-0.96Q81.22-1.46 81.98-2.28Q82.73-3.09 83.31-4.07Q83.90-5.06 84.33-6.04L84.33-6.04Q84.52-6.48 84.88-6.48L84.88-6.48Q85.21-6.48 85.39-6.25Q85.58-6.02 85.58-5.74L85.58-5.74Q85.58-5.59 85.52-5.45L85.52-5.45Q85.31-4.92 84.96-4.25Q84.62-3.57 84.14-2.86Q83.66-2.15 83.04-1.46Q82.41-0.78 81.64-0.24Q80.87 0.29 79.95 0.62Q79.04 0.94 77.94 0.94L77.94 0.94Q76.63 0.94 75.51 0.48Q74.39 0.02 73.68-1.04L73.68-1.04Q73.57-1.21 73.57-1.41L73.57-1.41Q73.57-1.70 73.79-1.92Q74.02-2.15 74.31-2.15L74.31-2.15Q74.62-2.15 74.84-1.93L74.84-1.93Q74.86-1.89 74.97-1.81Q75.09-1.72 75.26-1.61Q75.42-1.50 75.65-1.43Q75.87-1.35 76.11-1.35L76.11-1.35Q76.58-1.35 76.90-1.54Q77.22-1.74 77.41-2.02Q77.61-2.30 77.70-2.63Q77.79-2.95 77.79-3.18L77.79-3.18Q77.79-3.67 77.63-4.16Q77.47-4.65 77.23-5.14Q76.99-5.63 76.70-6.14Q76.42-6.66 76.18-7.23Z M110.54-5.41L110.54-5.41Q110.42-5.20 110.13-4.63Q109.85-4.06 109.37-3.35Q108.89-2.64 108.23-1.88Q107.57-1.11 106.71-0.48Q105.85 0.16 104.78 0.57Q103.72 0.98 102.47 0.98L102.47 0.98Q101.36 0.98 100.50 0.58Q99.64 0.18 99.03-0.56Q98.43-1.29 98.11-2.29Q97.80-3.28 97.80-4.49L97.80-4.49Q97.80-5.66 98.13-6.69Q98.46-7.71 99.04-8.48Q99.62-9.24 100.38-9.68Q101.14-10.12 102.00-10.12L102.00-10.12Q102.64-10.12 103.17-9.89Q103.70-9.67 104.06-9.30Q104.42-8.93 104.63-8.48Q104.83-8.03 104.83-7.58L104.83-7.58Q104.83-7.15 104.72-6.78Q104.62-6.41 104.45-6.12Q104.29-5.84 104.07-5.67Q103.86-5.51 103.64-5.51L103.64-5.51Q103.31-5.51 103.10-5.72Q102.90-5.94 102.90-6.25L102.90-6.25Q102.90-6.41 102.97-6.52Q103.04-6.64 103.12-6.77Q103.21-6.89 103.28-7.08Q103.35-7.27 103.35-7.56L103.35-7.56Q103.35-7.97 102.97-8.30Q102.59-8.63 102.00-8.63L102.00-8.63Q101.45-8.63 100.96-8.30Q100.46-7.97 100.09-7.41Q99.71-6.86 99.49-6.10Q99.27-5.35 99.27-4.51L99.27-4.51Q99.27-3.71 99.46-2.99Q99.66-2.27 100.05-1.71Q100.44-1.15 101.03-0.82Q101.63-0.49 102.45-0.49L102.45-0.49Q103.50-0.49 104.40-0.87Q105.30-1.25 106.04-1.84Q106.79-2.42 107.35-3.12Q107.92-3.81 108.32-4.42Q108.72-5.04 108.94-5.50Q109.17-5.96 109.21-6.07L109.21-6.07Q109.29-6.27 109.47-6.38Q109.66-6.48 109.87-6.48L109.87-6.48Q110.20-6.48 110.41-6.25Q110.61-6.02 110.61-5.72L110.61-5.72Q110.61-5.61 110.54-5.41Z M122.72-5.41L122.72-5.41Q122.51-4.96 122.18-4.35Q121.86-3.73 121.45-3.07Q121.04-2.40 120.53-1.75Q120.03-1.09 119.43-0.58Q118.83-0.06 118.16 0.26Q117.49 0.59 116.72 0.59L116.72 0.59Q115.55 0.59 114.71-0.14Q113.87-0.86 113.29-2.03Q112.70-3.20 112.34-4.70Q111.98-6.19 111.78-7.74Q111.59-9.30 111.52-10.76Q111.45-12.23 111.45-13.36L111.45-13.36Q111.45-15 111.56-16.76Q111.67-18.52 111.90-20.20Q112.13-21.88 112.50-23.38Q112.86-24.88 113.36-26.02Q113.85-27.15 114.50-27.81Q115.14-28.48 115.96-28.48L115.96-28.48Q116.61-28.48 117.12-28.17Q117.64-27.87 117.99-27.19Q118.35-26.50 118.54-25.41Q118.74-24.32 118.74-22.73L118.74-22.73Q118.74-20.78 118.33-18.70Q117.92-16.62 117.21-14.51Q116.51-12.40 115.55-10.30Q114.60-8.20 113.50-6.21L113.50-6.21Q113.99-3.73 114.81-2.31Q115.63-0.90 116.78-0.90L116.78-0.90Q117.56-0.90 118.29-1.51Q119.01-2.13 119.61-2.97Q120.22-3.81 120.68-4.68Q121.14-5.55 121.39-6.07L121.39-6.07Q121.49-6.27 121.67-6.38Q121.84-6.48 122.06-6.48L122.06-6.48Q122.39-6.48 122.59-6.25Q122.80-6.02 122.80-5.72L122.80-5.72Q122.80-5.61 122.72-5.41ZM112.94-13.26L112.94-13.26Q112.94-12.01 112.99-10.86Q113.05-9.71 113.15-8.65L113.15-8.65Q113.97-10.23 114.71-12.02Q115.45-13.81 116.02-15.63Q116.59-17.46 116.93-19.27Q117.27-21.07 117.27-22.71L117.27-22.71Q117.27-25.02 116.90-26.02Q116.53-27.01 115.90-27.01L115.90-27.01Q115.49-27.01 115.11-26.45Q114.73-25.88 114.40-24.90Q114.07-23.93 113.79-22.60Q113.52-21.27 113.34-19.75Q113.15-18.22 113.04-16.56Q112.94-14.90 112.94-13.26Z M126.98-15.33L126.98-15.33Q126.98-14.59 126.46-14.07Q125.94-13.55 125.20-13.55L125.20-13.55Q124.46-13.55 123.94-14.07Q123.42-14.59 123.42-15.33L123.42-15.33Q123.42-15.70 123.56-16.03Q123.69-16.35 123.94-16.59Q124.18-16.84 124.51-16.97Q124.83-17.11 125.20-17.11L125.20-17.11Q125.57-17.11 125.89-16.97Q126.21-16.84 126.46-16.59Q126.70-16.35 126.84-16.03Q126.98-15.70 126.98-15.33ZM123.81-3.89L123.81-3.89Q123.81-6.70 124.16-9.49L124.16-9.49Q124.20-9.77 124.41-9.97Q124.61-10.18 124.94-10.18L124.94-10.18Q125.24-10.18 125.43-9.95Q125.63-9.73 125.63-9.43L125.63-9.43Q125.63-9.32 125.58-8.73Q125.53-8.14 125.46-7.33Q125.39-6.52 125.34-5.62Q125.30-4.71 125.30-3.95L125.30-3.95Q125.30-2.91 125.50-2.28Q125.71-1.64 126.03-1.29Q126.35-0.94 126.71-0.82Q127.07-0.70 127.41-0.70L127.41-0.70Q127.95-0.70 128.54-1.09Q129.12-1.48 129.74-2.19Q130.35-2.89 130.98-3.88Q131.60-4.86 132.21-6.07L132.21-6.07Q132.31-6.27 132.48-6.38Q132.66-6.48 132.87-6.48L132.87-6.48Q133.19-6.48 133.39-6.25Q133.60-6.02 133.60-5.74L133.60-5.74Q133.60-5.55 133.52-5.41L133.52-5.41Q133.28-4.96 132.93-4.32Q132.58-3.67 132.13-2.99Q131.68-2.30 131.15-1.63Q130.61-0.96 130.00-0.42Q129.40 0.12 128.73 0.45Q128.07 0.78 127.39 0.78L127.39 0.78Q126.51 0.78 125.84 0.41Q125.18 0.04 124.72-0.59Q124.26-1.21 124.04-2.06Q123.81-2.91 123.81-3.89ZM125.88-15.33L125.88-15.33Q125.88-15.61 125.68-15.81Q125.47-16.02 125.20-16.02L125.20-16.02Q124.93-16.02 124.73-15.81Q124.53-15.61 124.53-15.33L124.53-15.33Q124.53-15.06 124.73-14.86Q124.93-14.67 125.20-14.67L125.20-14.67Q125.47-14.67 125.68-14.86Q125.88-15.06 125.88-15.33Z M141.66 1.99L141.66 1.99Q142.48 0.92 143.24-0.16Q144.00-1.23 144.66-2.27Q145.31-3.30 145.85-4.26Q146.39-5.21 146.76-6.04L146.76-6.04Q146.86-6.25 147.02-6.36Q147.19-6.46 147.40-6.46L147.40-6.46Q147.74-6.46 147.95-6.24Q148.16-6.02 148.16-5.72L148.16-5.72Q148.16-5.59 148.11-5.45L148.11-5.45Q147.68-4.49 147.05-3.39Q146.43-2.29 145.66-1.09Q144.88 0.10 143.99 1.33Q143.11 2.56 142.15 3.75L142.15 3.75Q142.99 4.73 143.72 6.17Q144.45 7.62 144.98 9.28Q145.51 10.94 145.81 12.66Q146.11 14.38 146.11 15.88L146.11 15.88Q146.11 17.58 145.78 18.59Q145.45 19.61 144.98 20.16Q144.51 20.70 144.00 20.87Q143.50 21.04 143.15 21.04L143.15 21.04Q142.07 21.04 141.46 20.36Q140.84 19.69 140.52 18.39Q140.20 17.09 140.11 15.18Q140.02 13.26 140.02 10.76L140.02 10.76Q140.02 9.12 140.05 7.44Q140.08 5.76 140.14 4.14Q140.20 2.52 140.27 1.03Q140.35-0.47 140.45-1.74L140.45-1.74Q139.83-0.80 139.05-0.29Q138.28 0.21 137.34 0.21L137.34 0.21Q136.64 0.21 136.07-0.06Q135.49-0.33 135.08-0.81Q134.67-1.29 134.45-1.93Q134.24-2.58 134.24-3.32L134.24-3.32Q134.24-4.84 134.76-6.01Q135.27-7.17 136.08-7.95Q136.88-8.73 137.84-9.12Q138.81-9.51 139.71-9.51L139.71-9.51Q140.31-9.51 140.82-9.35Q141.33-9.18 141.68-8.98Q142.03-8.79 142.24-8.62Q142.44-8.46 142.46-8.44L142.46-8.44Q142.68-8.24 142.68-7.91L142.68-7.91Q142.68-7.62 142.47-7.39Q142.27-7.17 141.93-7.17L141.93-7.17Q141.76-7.17 141.65-7.23Q141.54-7.29 141.43-7.38L141.43-7.38Q141.23-7.54 140.85-7.79Q140.47-8.05 139.73-8.05L139.73-8.05Q139.14-8.05 138.44-7.78Q137.74-7.52 137.13-6.95Q136.52-6.39 136.11-5.50Q135.70-4.61 135.70-3.36L135.70-3.36Q135.70-2.46 136.10-1.87Q136.50-1.27 137.38-1.27L137.38-1.27Q137.81-1.27 138.33-1.55Q138.85-1.84 139.33-2.40Q139.81-2.97 140.19-3.81Q140.57-4.65 140.72-5.76L140.72-5.76Q140.76-6.04 140.98-6.22Q141.19-6.41 141.47-6.41L141.47-6.41Q141.78-6.41 141.98-6.18Q142.19-5.96 142.19-5.66L142.19-5.66Q142.19-5.63 142.14-4.99Q142.09-4.36 142.01-3.31Q141.93-2.27 141.84-0.90Q141.74 0.47 141.66 1.99ZM141.52 5.31L141.52 5.31Q141.50 5.92 141.49 6.48Q141.49 7.05 141.49 7.60L141.49 7.60Q141.49 10.12 141.50 12.29Q141.52 14.47 141.67 16.08Q141.82 17.70 142.16 18.62Q142.50 19.55 143.13 19.55L143.13 19.55Q143.63 19.55 143.94 19.11Q144.24 18.67 144.40 18.07Q144.55 17.46 144.60 16.83Q144.65 16.19 144.65 15.80L144.65 15.80Q144.65 14.49 144.41 13.03Q144.16 11.56 143.74 10.14Q143.32 8.71 142.74 7.45Q142.17 6.19 141.52 5.31Z M155.64-2.19L155.64-2.19Q154.96-1.07 154.05-0.43Q153.14 0.21 152.23 0.21L152.23 0.21Q151.48 0.21 150.90-0.06Q150.31-0.33 149.88-0.83Q149.45-1.33 149.23-2.03Q149.00-2.73 149.00-3.61L149.00-3.61Q149.00-4.98 149.27-6.04Q149.53-7.09 149.84-7.80Q150.15-8.52 150.43-8.89Q150.70-9.26 150.70-9.26L150.70-9.26Q150.80-9.38 150.95-9.43Q151.09-9.49 151.25-9.49L151.25-9.49Q151.56-9.49 151.77-9.27Q151.97-9.04 151.97-8.75L151.97-8.75Q151.97-8.63 151.92-8.52Q151.87-8.40 151.81-8.28L151.81-8.28Q151.72-8.11 151.50-7.74Q151.29-7.38 151.05-6.80Q150.82-6.21 150.64-5.42Q150.47-4.63 150.47-3.61L150.47-3.61Q150.47-2.46 150.93-1.87Q151.39-1.27 152.23-1.27L152.23-1.27Q152.58-1.27 153.04-1.49Q153.49-1.72 153.93-2.19Q154.37-2.66 154.71-3.38Q155.04-4.10 155.14-5.08L155.14-5.08L155.43-8.44Q155.47-8.73 155.68-8.93Q155.90-9.12 156.19-9.12L156.19-9.12Q156.52-9.12 156.72-8.88Q156.91-8.63 156.91-8.32L156.91-8.32L156.66-5.08Q156.62-4.67 156.69-4.00Q156.76-3.34 156.97-2.70Q157.19-2.05 157.62-1.59Q158.05-1.13 158.75-1.13L158.75-1.13Q159.26-1.13 159.74-1.40Q160.23-1.66 160.68-2.09Q161.13-2.52 161.51-3.06Q161.89-3.59 162.22-4.14Q162.54-4.69 162.77-5.19Q163.01-5.68 163.16-6.04L163.16-6.04Q163.26-6.25 163.44-6.37Q163.61-6.48 163.83-6.48L163.83-6.48Q164.18-6.48 164.37-6.25Q164.57-6.02 164.57-5.74L164.57-5.74Q164.57-5.59 164.51-5.45L164.51-5.45Q164.43-5.29 164.21-4.79Q163.98-4.30 163.62-3.66Q163.26-3.03 162.75-2.32Q162.24-1.62 161.62-1.03Q160.99-0.43 160.26-0.05Q159.53 0.33 158.69 0.33L158.69 0.33Q157.54 0.33 156.78-0.32Q156.01-0.98 155.64-2.19Z M167.91-2.15L167.91-2.15Q168.32-1.58 168.96-1.24Q169.61-0.90 170.54-0.90L170.54-0.90Q171.50-0.90 172.28-1.36Q173.06-1.82 173.71-2.56Q174.35-3.30 174.86-4.22Q175.37-5.14 175.78-6.05L175.78-6.05Q175.88-6.27 176.05-6.38Q176.23-6.48 176.44-6.48L176.44-6.48Q176.77-6.48 176.98-6.25Q177.18-6.02 177.18-5.74L177.18-5.74Q177.18-5.64 177.16-5.58Q177.14-5.51 177.11-5.43L177.11-5.43Q175.76-2.46 174.17-0.96Q172.57 0.55 170.56 0.59L170.56 0.59Q169.27 0.59 168.34 0.09Q167.40-0.41 166.79-1.20Q166.19-1.99 165.89-2.99Q165.60-3.98 165.60-4.98L165.60-4.98Q165.60-5.98 165.85-6.82Q166.09-7.66 166.55-8.28Q167.01-8.91 167.64-9.26Q168.28-9.61 169.04-9.61L169.04-9.61Q169.49-9.61 169.93-9.42Q170.37-9.24 170.72-8.90Q171.07-8.55 171.29-8.07Q171.50-7.58 171.50-6.95L171.50-6.95Q171.50-6.15 171.23-5.45Q170.95-4.75 170.47-4.14Q170.00-3.54 169.33-3.03Q168.67-2.52 167.91-2.15ZM167.32-3.42L167.32-3.42Q167.93-3.67 168.42-4.06Q168.92-4.45 169.27-4.92Q169.63-5.39 169.82-5.91Q170.02-6.43 170.02-6.95L170.02-6.95Q170.02-7.54 169.72-7.84Q169.43-8.14 169.04-8.14L169.04-8.14Q168.51-8.14 168.14-7.85Q167.77-7.56 167.54-7.09Q167.30-6.62 167.19-6.04Q167.09-5.47 167.09-4.90L167.09-4.90Q167.09-4.55 167.15-4.16Q167.22-3.77 167.32-3.42Z M187.34 2.89L187.34 2.89Q187.45 4.47 187.45 6.68L187.45 6.68Q187.45 9.04 187.16 11.03Q186.87 13.01 186.30 14.44Q185.74 15.88 184.90 16.68Q184.06 17.48 182.96 17.48L182.96 17.48Q182.42 17.48 181.93 17.23Q181.44 16.97 181.08 16.50Q180.72 16.04 180.51 15.39Q180.31 14.75 180.31 13.95L180.31 13.95Q180.31 12.75 180.59 11.43Q180.87 10.10 181.52 8.65Q182.16 7.21 183.22 5.63Q184.27 4.06 185.81 2.36L185.81 2.36Q185.74 1.52 185.61 0.80Q185.48 0.08 185.29-0.45Q185.09-0.98 184.83-1.27Q184.56-1.56 184.19-1.56L184.19-1.56Q184.08-1.56 183.92-1.52L183.92-1.52Q183.47-1.00 183.11-0.70Q182.75-0.41 182.45-0.25Q182.16-0.10 181.96-0.06Q181.75-0.02 181.65-0.02L181.65-0.02Q181.32-0.02 181.02-0.21Q180.72-0.39 180.72-0.90L180.72-0.90Q180.72-1.07 180.84-1.35Q180.97-1.62 181.26-1.92Q181.56-2.23 182.03-2.49Q182.51-2.75 183.20-2.89L183.20-2.89Q184.49-4.28 185.21-5.44Q185.93-6.60 185.93-7.62L185.93-7.62Q185.93-8.50 185.38-9.02Q184.84-9.55 184.00-9.55L184.00-9.55Q182.83-9.55 181.65-8.46Q180.48-7.36 179.54-5.43L179.54-5.43Q179.33-5 178.86-5L178.86-5Q178.53-5 178.33-5.23Q178.14-5.47 178.14-5.74L178.14-5.74Q178.14-5.92 178.22-6.05L178.22-6.05Q179.37-8.42 180.87-9.73Q182.38-11.04 184.02-11.04L184.02-11.04Q184.68-11.04 185.30-10.80Q185.91-10.57 186.38-10.13Q186.85-9.69 187.12-9.05Q187.40-8.42 187.40-7.60L187.40-7.60Q187.40-6.91 187.21-6.28Q187.03-5.64 186.71-5.05Q186.40-4.45 185.99-3.91Q185.58-3.36 185.15-2.85L185.15-2.85Q185.68-2.62 186.02-2.19Q186.36-1.76 186.59-1.23Q186.81-0.70 186.93-0.14Q187.04 0.43 187.12 0.96L187.12 0.96Q187.86 0.16 188.67-0.74Q189.47-1.64 190.21-2.56Q190.95-3.48 191.57-4.37Q192.18-5.25 192.53-6.04L192.53-6.04Q192.63-6.25 192.81-6.36Q192.98-6.46 193.20-6.46L193.20-6.46Q193.53-6.46 193.73-6.24Q193.94-6.02 193.94-5.74L193.94-5.74Q193.94-5.59 193.88-5.45L193.88-5.45Q193.45-4.47 192.67-3.35Q191.89-2.23 190.97-1.10Q190.05 0.02 189.10 1.05Q188.14 2.09 187.34 2.89ZM185.95 4.45L185.95 4.45Q184.72 5.96 183.92 7.29Q183.12 8.61 182.64 9.79Q182.16 10.96 181.97 11.96Q181.77 12.97 181.77 13.81L181.77 13.81Q181.77 14.80 182.12 15.41Q182.47 16.02 182.98 16.02L182.98 16.02Q183.67 16.02 184.22 15.31Q184.78 14.61 185.17 13.39Q185.56 12.17 185.78 10.51Q185.99 8.85 185.99 6.93L185.99 6.93Q185.99 6.43 185.98 5.79Q185.97 5.16 185.95 4.45Z M198.39-0.72L198.39-0.72Q198.39 0.68 197.97 2.00Q197.55 3.32 196.44 4.38L196.44 4.38Q196.18 4.59 195.91 4.59L195.91 4.59Q195.64 4.59 195.40 4.38Q195.17 4.18 195.17 3.87L195.17 3.87Q195.17 3.55 195.38 3.34L195.38 3.34Q196.12 2.58 196.52 1.59Q196.93 0.61 196.93-0.66L196.93-0.66Q196.93-0.98 197.11-1.20Q197.30-1.43 197.63-1.43L197.63-1.43Q197.92-1.43 198.15-1.24Q198.37-1.05 198.39-0.72Z M220.05-1.76L220.05-1.76Q220.36-2.40 220.77-3.17Q221.18-3.95 221.65-4.74Q222.12-5.53 222.63-6.31Q223.15-7.09 223.72-7.79L223.72-7.79Q224.28-8.48 224.86-8.78Q225.44-9.08 225.94-9.08L225.94-9.08Q226.96-9.08 227.45-8.34Q227.94-7.60 227.94-6.50L227.94-6.50Q227.94-6.25 227.91-5.89Q227.88-5.53 227.85-5.12Q227.82-4.71 227.79-4.29Q227.76-3.87 227.76-3.50L227.76-3.50Q227.76-3.03 227.81-2.60Q227.86-2.17 227.99-1.85Q228.13-1.52 228.39-1.34Q228.64-1.15 229.05-1.15L229.05-1.15Q229.79-1.15 230.49-1.73Q231.20-2.30 231.79-3.10Q232.39-3.89 232.83-4.71Q233.27-5.53 233.48-6.04L233.48-6.04Q233.58-6.25 233.77-6.37Q233.95-6.48 234.17-6.48L234.17-6.48Q234.50-6.48 234.70-6.24Q234.91-6.00 234.91-5.72L234.91-5.72Q234.91-5.59 234.85-5.45L234.85-5.45Q234.77-5.29 234.54-4.80Q234.30-4.32 233.92-3.68Q233.54-3.05 233.03-2.33Q232.53-1.62 231.91-1.04Q231.30-0.45 230.58-0.06Q229.87 0.33 229.09 0.33L229.09 0.33Q228.21 0.33 227.66-0.01Q227.12-0.35 226.80-0.91Q226.49-1.46 226.38-2.14Q226.28-2.81 226.28-3.50L226.28-3.50Q226.28-3.79 226.31-4.16Q226.33-4.53 226.38-4.94Q226.43-5.35 226.46-5.76Q226.49-6.17 226.49-6.54L226.49-6.54Q226.49-7.17 226.30-7.39Q226.10-7.62 225.94-7.62L225.94-7.62Q225.63-7.62 225.23-7.26Q224.83-6.89 224.39-6.31Q223.95-5.72 223.49-4.99Q223.03-4.26 222.63-3.54Q222.23-2.81 221.89-2.16Q221.55-1.50 221.35-1.07L221.35-1.07Q220.96-0.25 220.57 0.03Q220.18 0.31 219.77 0.31L219.77 0.31Q219.21 0.31 218.86-0.03Q218.52-0.37 218.52-1.00L218.52-1.00Q218.52-1.13 218.56-1.53Q218.60-1.93 218.66-2.49Q218.72-3.05 218.78-3.69Q218.83-4.34 218.89-4.97Q218.95-5.61 218.99-6.15Q219.03-6.70 219.03-7.07L219.03-7.07Q219.03-7.56 218.99-8.01Q218.95-8.46 218.83-8.55L218.83-8.55Q218.66-8.50 218.21-7.82Q217.76-7.15 217.06-5.45L217.06-5.45Q216.96-5.23 216.76-5.12Q216.57-5 216.35-5L216.35-5Q216.02-5 215.83-5.22Q215.63-5.45 215.63-5.74L215.63-5.74Q215.63-5.88 215.69-6.04L215.69-6.04Q216.57-8.13 217.34-9.11Q218.11-10.10 218.87-10.10L218.87-10.10Q219.32-10.10 219.64-9.87Q219.95-9.65 220.13-9.28Q220.32-8.91 220.41-8.46Q220.49-8.01 220.49-7.54L220.49-7.54Q220.49-7.19 220.45-6.45Q220.40-5.70 220.32-4.85Q220.24-4.00 220.17-3.16Q220.10-2.32 220.05-1.76Z M244.91-2.15L244.91-2.15Q244.42-2.15 244.05-2.23L244.05-2.23Q243.75-1.64 243.34-1.14Q242.93-0.64 242.40-0.27Q241.86 0.10 241.20 0.31Q240.53 0.53 239.75 0.53L239.75 0.53Q238.83 0.53 238.07 0.21Q237.31-0.12 236.74-0.69Q236.18-1.27 235.86-2.08Q235.55-2.89 235.55-3.87L235.55-3.87Q235.55-5.12 236.00-6.04Q236.45-6.97 237.04-7.59Q237.62-8.20 238.21-8.51Q238.79-8.81 239.09-8.81L239.09-8.81Q239.42-8.81 239.58-8.63Q239.75-8.46 239.75-8.16L239.75-8.16Q239.75-7.83 239.54-7.67Q239.34-7.50 239.03-7.34L239.03-7.34Q238.71-7.19 238.36-6.90Q238.01-6.62 237.71-6.19Q237.41-5.76 237.21-5.18Q237.02-4.59 237.02-3.87L237.02-3.87Q237.02-3.22 237.21-2.67Q237.41-2.11 237.78-1.71Q238.15-1.31 238.66-1.08Q239.16-0.86 239.79-0.86L239.79-0.86Q240.90-0.86 241.63-1.38Q242.37-1.89 242.76-2.70L242.76-2.70Q241.61-3.30 240.86-4.41Q240.12-5.53 240.12-6.91L240.12-6.91Q240.12-8.03 240.66-8.73Q241.20-9.43 242.07-9.43L242.07-9.43Q242.60-9.43 243.07-9.18Q243.54-8.93 243.90-8.38Q244.26-7.83 244.48-6.97Q244.69-6.11 244.69-4.92L244.69-4.92Q244.69-4.30 244.54-3.61L244.54-3.61Q244.65-3.59 244.77-3.59Q244.89-3.59 245.02-3.59L245.02-3.59Q245.69-3.59 246.21-3.75Q246.74-3.91 247.17-4.22Q247.60-4.53 247.94-5.02Q248.29-5.51 248.60-6.15L248.60-6.15Q248.66-6.27 248.85-6.38Q249.05-6.48 249.24-6.48L249.24-6.48Q249.50-6.48 249.72-6.28Q249.95-6.07 249.95-5.74L249.95-5.74Q249.95-5.59 249.87-5.40Q249.79-5.21 249.71-5.06L249.71-5.06Q249.38-4.47 248.94-3.94Q248.50-3.40 247.90-3.00Q247.31-2.60 246.57-2.36Q245.82-2.13 244.91-2.15ZM241.57-7.07L241.57-7.07Q241.57-6.70 241.66-6.29Q241.76-5.88 241.97-5.48Q242.17-5.08 242.47-4.72Q242.78-4.36 243.19-4.10L243.19-4.10Q243.25-4.51 243.25-4.90L243.25-4.90Q243.25-5.43 243.17-5.98Q243.09-6.52 242.94-6.98Q242.80-7.44 242.58-7.72Q242.37-8.01 242.07-8.01L242.07-8.01Q241.96-8.01 241.76-7.83Q241.57-7.66 241.57-7.07Z M257.42-2.19L257.42-2.19Q256.74-1.07 255.83-0.43Q254.92 0.21 254.01 0.21L254.01 0.21Q253.26 0.21 252.68-0.06Q252.09-0.33 251.66-0.83Q251.23-1.33 251.01-2.03Q250.78-2.73 250.78-3.61L250.78-3.61Q250.78-4.98 251.05-6.04Q251.31-7.09 251.62-7.80Q251.94-8.52 252.21-8.89Q252.48-9.26 252.48-9.26L252.48-9.26Q252.58-9.38 252.73-9.43Q252.87-9.49 253.03-9.49L253.03-9.49Q253.34-9.49 253.55-9.27Q253.75-9.04 253.75-8.75L253.75-8.75Q253.75-8.63 253.70-8.52Q253.65-8.40 253.60-8.28L253.60-8.28Q253.50-8.11 253.28-7.74Q253.07-7.38 252.83-6.80Q252.60-6.21 252.42-5.42Q252.25-4.63 252.25-3.61L252.25-3.61Q252.25-2.46 252.71-1.87Q253.17-1.27 254.01-1.27L254.01-1.27Q254.36-1.27 254.82-1.49Q255.28-1.72 255.71-2.19Q256.15-2.66 256.49-3.38Q256.82-4.10 256.92-5.08L256.92-5.08L257.21-8.44Q257.25-8.73 257.46-8.93Q257.68-9.12 257.97-9.12L257.97-9.12Q258.30-9.12 258.50-8.88Q258.69-8.63 258.69-8.32L258.69-8.32L258.44-5.08Q258.40-4.67 258.47-4.00Q258.54-3.34 258.75-2.70Q258.97-2.05 259.40-1.59Q259.83-1.13 260.53-1.13L260.53-1.13Q261.04-1.13 261.53-1.40Q262.01-1.66 262.46-2.09Q262.91-2.52 263.29-3.06Q263.67-3.59 264.00-4.14Q264.32-4.69 264.55-5.19Q264.79-5.68 264.94-6.04L264.94-6.04Q265.04-6.25 265.22-6.37Q265.39-6.48 265.61-6.48L265.61-6.48Q265.96-6.48 266.15-6.25Q266.35-6.02 266.35-5.74L266.35-5.74Q266.35-5.59 266.29-5.45L266.29-5.45Q266.21-5.29 265.99-4.79Q265.76-4.30 265.40-3.66Q265.04-3.03 264.53-2.32Q264.03-1.62 263.40-1.03Q262.78-0.43 262.04-0.05Q261.31 0.33 260.47 0.33L260.47 0.33Q259.32 0.33 258.56-0.32Q257.79-0.98 257.42-2.19Z M269.51-7.23L269.51-7.23Q269.39-6.91 269.23-6.52Q269.06-6.13 268.85-5.70L268.85-5.70Q268.67-5.37 268.49-5.19Q268.30-5 268.01-5L268.01-5Q267.68-5 267.48-5.21Q267.28-5.41 267.28-5.68L267.28-5.68Q267.28-5.78 267.30-5.85Q267.32-5.92 267.40-6.07L267.40-6.07Q267.91-7.05 268.15-7.78Q268.40-8.52 268.55-9.32L268.55-9.32Q268.42-9.77 268.36-10.08Q268.30-10.39 268.30-10.72L268.30-10.72Q268.30-11.37 268.57-11.77Q268.85-12.17 269.34-12.17L269.34-12.17Q269.78-12.17 270.05-11.78Q270.31-11.39 270.31-10.82L270.31-10.82Q270.31-10.51 270.25-10.20Q270.19-9.88 270.10-9.41L270.10-9.41Q270.55-8.30 271.00-7.44Q271.44-6.58 271.80-5.87Q272.15-5.16 272.37-4.53Q272.60-3.91 272.60-3.28L272.60-3.28Q272.60-2.46 272.26-1.72Q271.93-0.98 271.17-0.47L271.17-0.47Q271.27-0.45 271.37-0.45Q271.46-0.45 271.56-0.45L271.56-0.45Q272.68-0.45 273.61-0.96Q274.55-1.46 275.30-2.28Q276.05-3.09 276.64-4.07Q277.23-5.06 277.66-6.04L277.66-6.04Q277.85-6.48 278.20-6.48L278.20-6.48Q278.53-6.48 278.72-6.25Q278.91-6.02 278.91-5.74L278.91-5.74Q278.91-5.59 278.85-5.45L278.85-5.45Q278.63-4.92 278.29-4.25Q277.95-3.57 277.47-2.86Q276.99-2.15 276.37-1.46Q275.74-0.78 274.97-0.24Q274.20 0.29 273.28 0.62Q272.36 0.94 271.27 0.94L271.27 0.94Q269.96 0.94 268.84 0.48Q267.71 0.02 267.01-1.04L267.01-1.04Q266.89-1.21 266.89-1.41L266.89-1.41Q266.89-1.70 267.12-1.92Q267.34-2.15 267.64-2.15L267.64-2.15Q267.95-2.15 268.16-1.93L268.16-1.93Q268.18-1.89 268.30-1.81Q268.42-1.72 268.58-1.61Q268.75-1.50 268.97-1.43Q269.20-1.35 269.43-1.35L269.43-1.35Q269.90-1.35 270.22-1.54Q270.55-1.74 270.74-2.02Q270.94-2.30 271.02-2.63Q271.11-2.95 271.11-3.18L271.11-3.18Q271.11-3.67 270.96-4.16Q270.80-4.65 270.56-5.14Q270.31-5.63 270.03-6.14Q269.75-6.66 269.51-7.23Z M302.20-5.41L302.20-5.41Q301.99-4.96 301.66-4.35Q301.34-3.73 300.93-3.07Q300.52-2.40 300.01-1.75Q299.51-1.09 298.91-0.58Q298.31-0.06 297.64 0.26Q296.97 0.59 296.21 0.59L296.21 0.59Q295.03 0.59 294.19-0.14Q293.35-0.86 292.77-2.03Q292.18-3.20 291.82-4.70Q291.46-6.19 291.26-7.74Q291.07-9.30 291.00-10.76Q290.93-12.23 290.93-13.36L290.93-13.36Q290.93-15 291.04-16.76Q291.15-18.52 291.38-20.20Q291.62-21.88 291.98-23.38Q292.34-24.88 292.84-26.02Q293.33-27.15 293.98-27.81Q294.62-28.48 295.44-28.48L295.44-28.48Q296.09-28.48 296.61-28.17Q297.12-27.87 297.48-27.19Q297.83-26.50 298.02-25.41Q298.22-24.32 298.22-22.73L298.22-22.73Q298.22-20.78 297.81-18.70Q297.40-16.62 296.69-14.51Q295.99-12.40 295.03-10.30Q294.08-8.20 292.98-6.21L292.98-6.21Q293.47-3.73 294.29-2.31Q295.11-0.90 296.26-0.90L296.26-0.90Q297.05-0.90 297.77-1.51Q298.49-2.13 299.10-2.97Q299.70-3.81 300.16-4.68Q300.62-5.55 300.87-6.07L300.87-6.07Q300.97-6.27 301.15-6.38Q301.32-6.48 301.54-6.48L301.54-6.48Q301.87-6.48 302.07-6.25Q302.28-6.02 302.28-5.72L302.28-5.72Q302.28-5.61 302.20-5.41ZM292.42-13.26L292.42-13.26Q292.42-12.01 292.48-10.86Q292.53-9.71 292.63-8.65L292.63-8.65Q293.45-10.23 294.19-12.02Q294.94-13.81 295.50-15.63Q296.07-17.46 296.41-19.27Q296.75-21.07 296.75-22.71L296.75-22.71Q296.75-25.02 296.38-26.02Q296.01-27.01 295.39-27.01L295.39-27.01Q294.98-27.01 294.59-26.45Q294.21-25.88 293.88-24.90Q293.55-23.93 293.28-22.60Q293.00-21.27 292.82-19.75Q292.63-18.22 292.52-16.56Q292.42-14.90 292.42-13.26Z M306.46-15.33L306.46-15.33Q306.46-14.59 305.94-14.07Q305.42-13.55 304.68-13.55L304.68-13.55Q303.94-13.55 303.42-14.07Q302.90-14.59 302.90-15.33L302.90-15.33Q302.90-15.70 303.04-16.03Q303.18-16.35 303.42-16.59Q303.66-16.84 303.99-16.97Q304.31-17.11 304.68-17.11L304.68-17.11Q305.05-17.11 305.37-16.97Q305.70-16.84 305.94-16.59Q306.18-16.35 306.32-16.03Q306.46-15.70 306.46-15.33ZM303.29-3.89L303.29-3.89Q303.29-6.70 303.64-9.49L303.64-9.49Q303.68-9.77 303.89-9.97Q304.09-10.18 304.43-10.18L304.43-10.18Q304.72-10.18 304.91-9.95Q305.11-9.73 305.11-9.43L305.11-9.43Q305.11-9.32 305.06-8.73Q305.01-8.14 304.94-7.33Q304.88-6.52 304.83-5.62Q304.78-4.71 304.78-3.95L304.78-3.95Q304.78-2.91 304.98-2.28Q305.19-1.64 305.51-1.29Q305.83-0.94 306.19-0.82Q306.55-0.70 306.89-0.70L306.89-0.70Q307.43-0.70 308.02-1.09Q308.61-1.48 309.22-2.19Q309.84-2.89 310.46-3.88Q311.09-4.86 311.69-6.07L311.69-6.07Q311.79-6.27 311.96-6.38Q312.14-6.48 312.36-6.48L312.36-6.48Q312.67-6.48 312.87-6.25Q313.08-6.02 313.08-5.74L313.08-5.74Q313.08-5.55 313-5.41L313-5.41Q312.77-4.96 312.41-4.32Q312.06-3.67 311.61-2.99Q311.16-2.30 310.63-1.63Q310.09-0.96 309.48-0.42Q308.88 0.12 308.21 0.45Q307.55 0.78 306.87 0.78L306.87 0.78Q305.99 0.78 305.32 0.41Q304.66 0.04 304.20-0.59Q303.74-1.21 303.52-2.06Q303.29-2.91 303.29-3.89ZM305.36-15.33L305.36-15.33Q305.36-15.61 305.16-15.81Q304.95-16.02 304.68-16.02L304.68-16.02Q304.41-16.02 304.21-15.81Q304.02-15.61 304.02-15.33L304.02-15.33Q304.02-15.06 304.21-14.86Q304.41-14.67 304.68-14.67L304.68-14.67Q304.95-14.67 305.16-14.86Q305.36-15.06 305.36-15.33Z M321.98-6.15L321.98-6.15Q321.69-4.79 321.14-3.60Q320.60-2.42 319.98-1.54Q319.36-0.66 318.74-0.16Q318.11 0.35 317.67 0.39L317.67 0.39Q317.16 0.39 316.54-0.12Q315.93-0.63 315.37-1.53Q314.81-2.44 314.44-3.69Q314.07-4.94 314.07-6.41L314.07-6.41Q314.07-7.70 314.30-8.36Q314.52-9.02 314.58-9.12L314.58-9.12Q314.68-9.30 314.84-9.39Q315.01-9.49 315.22-9.49L315.22-9.49Q315.56-9.49 315.75-9.27Q315.95-9.04 315.95-8.77L315.95-8.77Q315.95-8.57 315.87-8.44L315.87-8.44Q315.85-8.40 315.69-7.91Q315.54-7.42 315.54-6.45L315.54-6.45Q315.54-5.29 315.77-4.32Q316.01-3.34 316.34-2.64Q316.67-1.93 317.03-1.53Q317.39-1.13 317.63-1.13L317.63-1.13Q317.78-1.13 318.09-1.43Q318.39-1.72 318.73-2.23Q319.07-2.73 319.43-3.44Q319.79-4.14 320.10-4.97Q320.40-5.80 320.59-6.73Q320.77-7.66 320.77-8.61L320.77-8.61Q320.77-8.81 320.76-8.99Q320.75-9.18 320.75-9.38L320.75-9.38Q320.75-9.71 320.96-9.93Q321.16-10.16 321.49-10.16L321.49-10.16Q321.75-10.16 321.95-10Q322.16-9.84 322.22-9.57L322.22-9.57Q322.22-9.59 322.29-9.26Q322.37-8.93 322.56-8.41Q322.74-7.89 323.03-7.29Q323.31-6.68 323.71-6.16Q324.11-5.64 324.64-5.29Q325.17-4.94 325.85-4.94L325.85-4.94Q326.22-4.94 326.49-5.10Q326.77-5.25 326.94-5.45Q327.12-5.64 327.21-5.82Q327.29-6.00 327.29-6.02L327.29-6.02Q327.37-6.23 327.56-6.36Q327.74-6.48 327.98-6.48L327.98-6.48Q328.29-6.48 328.51-6.26Q328.72-6.04 328.72-5.74L328.72-5.74Q328.72-5.61 328.66-5.47L328.66-5.47Q328.54-5.20 328.32-4.84Q328.10-4.49 327.74-4.18Q327.39-3.87 326.91-3.66Q326.44-3.46 325.85-3.46L325.85-3.46Q325.17-3.46 324.58-3.70Q323.99-3.95 323.52-4.33Q323.04-4.71 322.65-5.19Q322.26-5.66 321.98-6.15Z M331.76-8.03L331.76-8.03Q331.69-7.50 331.57-7.04Q331.45-6.58 331.34-6.24Q331.24-5.90 331.16-5.68Q331.08-5.47 331.06-5.45L331.06-5.45Q330.87-5 330.38-5L330.38-5Q330.10-5 329.87-5.21Q329.64-5.41 329.64-5.72L329.64-5.72Q329.64-5.84 329.67-5.90Q329.71-5.96 329.79-6.13Q329.87-6.31 329.99-6.72Q330.10-7.13 330.28-7.99L330.28-7.99Q329.95-7.99 329.60-8.01Q329.25-8.03 328.94-8.14Q328.64-8.26 328.44-8.52Q328.25-8.77 328.25-9.22L328.25-9.22Q328.25-9.55 328.43-10.12Q328.62-10.68 328.93-11.23Q329.25-11.78 329.64-12.18Q330.03-12.58 330.42-12.58L330.42-12.58Q330.87-12.58 331.15-12.25Q331.43-11.91 331.59-11.44Q331.75-10.96 331.81-10.43Q331.88-9.90 331.88-9.51L331.88-9.51Q332.21-9.51 332.54-9.52Q332.86-9.53 333.15-9.53L333.15-9.53Q334.26-9.53 334.85-9.04Q335.44-8.55 335.44-7.44L335.44-7.44Q335.44-6.99 335.38-6.50Q335.32-6.02 335.24-5.50Q335.16-4.98 335.10-4.47Q335.05-3.96 335.05-3.48L335.05-3.48Q335.05-2.77 335.24-2.31Q335.44-1.86 335.73-1.58Q336.02-1.31 336.35-1.20Q336.69-1.09 336.96-1.09L336.96-1.09Q337.80-1.09 338.54-1.64Q339.28-2.19 339.91-2.96Q340.53-3.73 341.03-4.59Q341.53-5.45 341.86-6.09L341.86-6.09Q341.96-6.27 342.14-6.37Q342.31-6.46 342.51-6.46L342.51-6.46Q342.86-6.46 343.05-6.24Q343.25-6.02 343.25-5.74L343.25-5.74Q343.25-5.55 343.17-5.39L343.17-5.39Q342.72-4.59 342.13-3.58Q341.53-2.58 340.77-1.70Q340.01-0.82 339.06-0.21Q338.11 0.39 336.98 0.39L336.98 0.39Q336.28 0.39 335.65 0.13Q335.03-0.14 334.57-0.63Q334.11-1.13 333.84-1.87Q333.56-2.60 333.56-3.52L333.56-3.52Q333.56-4.49 333.76-5.46Q333.95-6.43 333.95-7.30L333.95-7.30Q333.95-7.68 333.79-7.86Q333.62-8.05 333.05-8.05L333.05-8.05Q332.78-8.05 332.46-8.05Q332.14-8.05 331.76-8.03ZM329.60-9.47L330.46-9.47Q330.46-9.61 330.45-9.83Q330.44-10.06 330.41-10.27Q330.38-10.49 330.33-10.64Q330.28-10.80 330.22-10.80L330.22-10.80Q330.16-10.80 330.08-10.65Q329.99-10.51 329.89-10.30Q329.79-10.10 329.71-9.86Q329.64-9.63 329.60-9.47L329.60-9.47Z M353.25-2.15L353.25-2.15Q352.76-2.15 352.39-2.23L352.39-2.23Q352.09-1.64 351.68-1.14Q351.27-0.64 350.74-0.27Q350.20 0.10 349.54 0.31Q348.87 0.53 348.09 0.53L348.09 0.53Q347.17 0.53 346.41 0.21Q345.65-0.12 345.08-0.69Q344.52-1.27 344.20-2.08Q343.89-2.89 343.89-3.87L343.89-3.87Q343.89-5.12 344.34-6.04Q344.79-6.97 345.38-7.59Q345.96-8.20 346.55-8.51Q347.13-8.81 347.43-8.81L347.43-8.81Q347.76-8.81 347.92-8.63Q348.09-8.46 348.09-8.16L348.09-8.16Q348.09-7.83 347.89-7.67Q347.68-7.50 347.37-7.34L347.37-7.34Q347.06-7.19 346.70-6.90Q346.35-6.62 346.05-6.19Q345.75-5.76 345.55-5.18Q345.36-4.59 345.36-3.87L345.36-3.87Q345.36-3.22 345.55-2.67Q345.75-2.11 346.12-1.71Q346.49-1.31 347.00-1.08Q347.50-0.86 348.13-0.86L348.13-0.86Q349.24-0.86 349.98-1.38Q350.71-1.89 351.10-2.70L351.10-2.70Q349.95-3.30 349.20-4.41Q348.46-5.53 348.46-6.91L348.46-6.91Q348.46-8.03 349.00-8.73Q349.54-9.43 350.41-9.43L350.41-9.43Q350.94-9.43 351.41-9.18Q351.88-8.93 352.24-8.38Q352.60-7.83 352.82-6.97Q353.03-6.11 353.03-4.92L353.03-4.92Q353.03-4.30 352.88-3.61L352.88-3.61Q352.99-3.59 353.11-3.59Q353.23-3.59 353.36-3.59L353.36-3.59Q354.03-3.59 354.56-3.75Q355.08-3.91 355.51-4.22Q355.94-4.53 356.28-5.02Q356.63-5.51 356.94-6.15L356.94-6.15Q357.00-6.27 357.19-6.38Q357.39-6.48 357.58-6.48L357.58-6.48Q357.84-6.48 358.06-6.28Q358.29-6.07 358.29-5.74L358.29-5.74Q358.29-5.59 358.21-5.40Q358.13-5.21 358.05-5.06L358.05-5.06Q357.72-4.47 357.28-3.94Q356.84-3.40 356.24-3.00Q355.65-2.60 354.91-2.36Q354.16-2.13 353.25-2.15ZM349.91-7.07L349.91-7.07Q349.91-6.70 350.00-6.29Q350.10-5.88 350.31-5.48Q350.51-5.08 350.82-4.72Q351.12-4.36 351.53-4.10L351.53-4.10Q351.59-4.51 351.59-4.90L351.59-4.90Q351.59-5.43 351.51-5.98Q351.43-6.52 351.28-6.98Q351.14-7.44 350.92-7.72Q350.71-8.01 350.41-8.01L350.41-8.01Q350.30-8.01 350.10-7.83Q349.91-7.66 349.91-7.07Z M363.62-1.76L363.62-1.76Q363.93-2.40 364.34-3.17Q364.75-3.95 365.22-4.74Q365.69-5.53 366.20-6.31Q366.72-7.09 367.29-7.79L367.29-7.79Q367.85-8.48 368.43-8.78Q369.01-9.08 369.51-9.08L369.51-9.08Q370.53-9.08 371.02-8.34Q371.51-7.60 371.51-6.50L371.51-6.50Q371.51-6.25 371.48-5.89Q371.45-5.53 371.42-5.12Q371.39-4.71 371.36-4.29Q371.33-3.87 371.33-3.50L371.33-3.50Q371.33-3.03 371.38-2.60Q371.43-2.17 371.56-1.85Q371.70-1.52 371.96-1.34Q372.21-1.15 372.62-1.15L372.62-1.15Q373.36-1.15 374.06-1.73Q374.77-2.30 375.36-3.10Q375.96-3.89 376.40-4.71Q376.84-5.53 377.05-6.04L377.05-6.04Q377.15-6.25 377.34-6.37Q377.52-6.48 377.74-6.48L377.74-6.48Q378.07-6.48 378.27-6.24Q378.48-6.00 378.48-5.72L378.48-5.72Q378.48-5.59 378.42-5.45L378.42-5.45Q378.34-5.29 378.11-4.80Q377.87-4.32 377.49-3.68Q377.11-3.05 376.60-2.33Q376.10-1.62 375.48-1.04Q374.87-0.45 374.15-0.06Q373.44 0.33 372.66 0.33L372.66 0.33Q371.78 0.33 371.23-0.01Q370.69-0.35 370.37-0.91Q370.06-1.46 369.95-2.14Q369.85-2.81 369.85-3.50L369.85-3.50Q369.85-3.79 369.88-4.16Q369.90-4.53 369.95-4.94Q370.00-5.35 370.03-5.76Q370.06-6.17 370.06-6.54L370.06-6.54Q370.06-7.17 369.87-7.39Q369.67-7.62 369.51-7.62L369.51-7.62Q369.20-7.62 368.80-7.26Q368.40-6.89 367.96-6.31Q367.52-5.72 367.06-4.99Q366.60-4.26 366.20-3.54Q365.80-2.81 365.46-2.16Q365.12-1.50 364.92-1.07L364.92-1.07Q364.53-0.25 364.14 0.03Q363.75 0.31 363.34 0.31L363.34 0.31Q362.78 0.31 362.43-0.03Q362.09-0.37 362.09-1.00L362.09-1.00Q362.09-1.13 362.13-1.53Q362.17-1.93 362.23-2.49Q362.29-3.05 362.35-3.69Q362.40-4.34 362.46-4.97Q362.52-5.61 362.56-6.15Q362.60-6.70 362.60-7.07L362.60-7.07Q362.60-7.56 362.56-8.01Q362.52-8.46 362.40-8.55L362.40-8.55Q362.23-8.50 361.78-7.82Q361.33-7.15 360.63-5.45L360.63-5.45Q360.53-5.23 360.33-5.12Q360.14-5 359.92-5L359.92-5Q359.59-5 359.40-5.22Q359.20-5.45 359.20-5.74L359.20-5.74Q359.20-5.88 359.26-6.04L359.26-6.04Q360.14-8.13 360.91-9.11Q361.68-10.10 362.44-10.10L362.44-10.10Q362.89-10.10 363.21-9.87Q363.52-9.65 363.70-9.28Q363.89-8.91 363.98-8.46Q364.06-8.01 364.06-7.54L364.06-7.54Q364.06-7.19 364.02-6.45Q363.97-5.70 363.89-4.85Q363.81-4.00 363.74-3.16Q363.67-2.32 363.62-1.76Z M381.64-7.23L381.64-7.23Q381.52-6.91 381.36-6.52Q381.19-6.13 380.98-5.70L380.98-5.70Q380.80-5.37 380.62-5.19Q380.43-5 380.14-5L380.14-5Q379.80-5 379.61-5.21Q379.41-5.41 379.41-5.68L379.41-5.68Q379.41-5.78 379.43-5.85Q379.45-5.92 379.53-6.07L379.53-6.07Q380.04-7.05 380.28-7.78Q380.53-8.52 380.68-9.32L380.68-9.32Q380.55-9.77 380.49-10.08Q380.43-10.39 380.43-10.72L380.43-10.72Q380.43-11.37 380.70-11.77Q380.98-12.17 381.46-12.17L381.46-12.17Q381.91-12.17 382.18-11.78Q382.44-11.39 382.44-10.82L382.44-10.82Q382.44-10.51 382.38-10.20Q382.32-9.88 382.23-9.41L382.23-9.41Q382.68-8.30 383.12-7.44Q383.57-6.58 383.93-5.87Q384.28-5.16 384.50-4.53Q384.73-3.91 384.73-3.28L384.73-3.28Q384.73-2.46 384.39-1.72Q384.06-0.98 383.30-0.47L383.30-0.47Q383.40-0.45 383.50-0.45Q383.59-0.45 383.69-0.45L383.69-0.45Q384.80-0.45 385.74-0.96Q386.68-1.46 387.43-2.28Q388.18-3.09 388.77-4.07Q389.36-5.06 389.79-6.04L389.79-6.04Q389.98-6.48 390.33-6.48L390.33-6.48Q390.66-6.48 390.85-6.25Q391.04-6.02 391.04-5.74L391.04-5.74Q391.04-5.59 390.98-5.45L390.98-5.45Q390.76-4.92 390.42-4.25Q390.08-3.57 389.60-2.86Q389.12-2.15 388.50-1.46Q387.87-0.78 387.10-0.24Q386.33 0.29 385.41 0.62Q384.49 0.94 383.40 0.94L383.40 0.94Q382.09 0.94 380.97 0.48Q379.84 0.02 379.14-1.04L379.14-1.04Q379.02-1.21 379.02-1.41L379.02-1.41Q379.02-1.70 379.25-1.92Q379.47-2.15 379.77-2.15L379.77-2.15Q380.08-2.15 380.29-1.93L380.29-1.93Q380.31-1.89 380.43-1.81Q380.55-1.72 380.71-1.61Q380.88-1.50 381.10-1.43Q381.33-1.35 381.56-1.35L381.56-1.35Q382.03-1.35 382.35-1.54Q382.68-1.74 382.87-2.02Q383.07-2.30 383.15-2.63Q383.24-2.95 383.24-3.18L383.24-3.18Q383.24-3.67 383.09-4.16Q382.93-4.65 382.69-5.14Q382.44-5.63 382.16-6.14Q381.87-6.66 381.64-7.23Z"></path></g>
        </svg>
      </g><g opacity="1" transform="rotate(0 93.91809999999998 175.87279999999998)">
        <svg width="196.6998" height="65.1273" x="93.91809999999998" y="175.87279999999998" version="1.1" preserveAspectRatio="none" viewBox="0.8 -14.44 72.12 23.880000000000003">
          <g transform="matrix(1 0 0 1 0 0)" class="companyName"><path d="M1.96-9.36L2.32-10.04Q2.44-10.48 2.72-10.78Q3-11.08 3.20-11.48L3.20-11.48Q3.24-11.52 3.44-11.80Q3.64-12.08 3.88-12.42Q4.12-12.76 4.34-13.02Q4.56-13.28 4.64-13.28L4.64-13.28Q4.64-13.44 4.78-13.64Q4.92-13.84 5.10-14.02Q5.28-14.20 5.46-14.32Q5.64-14.44 5.72-14.44L5.72-14.44L5.96-14.44L6.04-14.28L6.40-14.28Q6.60-14.24 6.78-14.10Q6.96-13.96 7.16-13.92L7.16-13.92L7.48-13.92Q8.68-13.64 9.86-13.14Q11.04-12.64 11.84-11.56L11.84-11.56Q12.04-10.92 12.24-10.34Q12.44-9.76 12.68-9.12L12.68-9.12Q12.68-8.80 12.66-8.30Q12.64-7.80 12.56-6.28L12.56-6.28L12.56-6.04Q12.56-5.80 12.42-5.36Q12.28-4.92 12.10-4.48Q11.92-4.04 11.72-3.72Q11.52-3.40 11.40-3.40L11.40-3.40L11.36-3.36Q11.16-3.04 10.66-2.56Q10.16-2.08 9.44-1.60Q8.72-1.12 7.84-0.78Q6.96-0.44 6-0.44L6-0.44Q5.36-0.44 4.76-0.58Q4.16-0.72 3.64-0.92L3.64-0.92L3.28-1.32L2.40-1.48Q2.16-1.64 1.98-1.94Q1.80-2.24 1.64-2.48L1.64-2.48Q1.08-3.08 0.94-3.74Q0.80-4.40 0.80-5.32L0.80-5.32Q0.80-5.52 0.84-5.62Q0.88-5.72 0.88-5.92L0.88-5.92L0.88-6.04Q0.88-6.08 0.94-6.28Q1-6.48 1.06-6.70Q1.12-6.92 1.18-7.10Q1.24-7.28 1.24-7.36L1.24-7.36L1.48-7.68Q1.48-7.80 1.60-7.94Q1.72-8.08 1.72-8.16L1.72-8.16L1.80-8.04Q1.84-8.12 1.88-8.32Q1.92-8.52 1.96-8.56L1.96-8.56L2.08-8.84Q2.08-8.92 2.14-9.12Q2.20-9.32 2.24-9.40L2.24-9.40L2.04-9.40Q2-9.40 1.96-9.36L1.96-9.36ZM4.44-5.60L4.44-5.60Q4.44-5.44 4.42-5.16Q4.40-4.88 4.40-4.60L4.40-4.60Q4.40-4.20 4.48-3.88L4.48-3.88L4.72-2.60L5.12-2.68Q5.24-2.52 5.48-2.52L5.48-2.52Q6-2.52 6.56-2.70Q7.12-2.88 7.56-3.28L7.56-3.28L8.28-4.24L8.68-5.16L8.80-6.12Q8.96-6.48 9-6.84Q9.04-7.20 9.04-7.56L9.04-7.56L9.04-8.36Q9.04-8.88 9.02-9.70Q9-10.52 8.64-10.96L8.64-10.96Q8.36-11.28 7.90-11.72Q7.44-12.16 7.12-12.16L7.12-12.16Q6.96-12.16 6.74-11.92Q6.52-11.68 6.44-11.68L6.44-11.68Q6.08-11.40 6.02-10.96Q5.96-10.52 5.76-10.12L5.76-10.12L5.68-9.52Q5.16-8.48 4.80-7.56Q4.44-6.64 4.44-5.60ZM2.80-8.84L2.68-8.84L2.32-8.04Q2.32-7.88 2.28-7.76Q2.24-7.64 2.24-7.48L2.24-7.48L2.36-7.44L2.72-8.32Q2.72-8.40 2.74-8.60Q2.76-8.80 2.80-8.84L2.80-8.84ZM1.48-6.88L1.24-6.68Q1.16-6.60 1.16-6.40L1.16-6.40L1.12-6.16L1.28-6.32Q1.28-6.40 1.34-6.52Q1.40-6.64 1.40-6.68L1.40-6.68L1.48-6.88ZM1.80-7.60L1.64-7.64Q1.48-7.48 1.48-7.32L1.48-7.32L1.48-7.20L1.80-7.60ZM2.68-9.80L2.68-9.80Q2.68-9.92 2.60-9.92L2.60-9.92Q2.52-9.92 2.52-9.80L2.52-9.80Q2.52-9.72 2.60-9.72L2.60-9.72Q2.60-9.72 2.68-9.80ZM2.12-7.16L1.96-6.76L2.08-6.84L2.12-7.16Z M17.04 7.96L16.96 7.88Q16.88 7.84 16.88 7.84L16.88 7.84Q16.84 7.84 16.82 7.86Q16.80 7.88 16.76 7.88L16.76 7.88L16.72 7.92Q16.68 7.96 16.62 7.98Q16.56 8 16.48 8.08L16.48 8.08L16.44 8.12L16.92 8.12Q16.80 8.24 16.66 8.26Q16.52 8.28 16.40 8.28L16.40 8.28L16.52 8.40L15.96 8.60Q15.96 8.68 15.98 8.70Q16 8.72 16 8.80L16 8.80Q16 8.84 15.92 9L15.92 9L15.64 9.08L15.72 9.16Q15.64 9.24 15.38 9.22Q15.12 9.20 15.12 9.28L15.12 9.28Q15.16 9.32 15.16 9.32L15.16 9.32L15.20 9.36L15.12 9.40L15.20 9.40Q15.20 9.44 14.84 9.44L14.84 9.44Q14.40 9.44 14.38 9.32Q14.36 9.20 14 9.12L14 9.12Q14 9.04 14.02 8.98Q14.04 8.92 14.08 8.84L14.08 8.84Q13.92 8.84 13.86 8.82Q13.80 8.80 13.68 8.68L13.68 8.68L13.36 8.52Q13.40 8.48 13.44 8.42Q13.48 8.36 13.68 8.36L13.68 8.36L13.76 8.36L13.76 8.12Q13.68 8.12 13.66 8.10Q13.64 8.08 13.56 8.08L13.56 8.08Q13.44 8.08 13.32 8.24L13.32 8.24L13.08 7.92Q13.16 7.88 13.16 7.88L13.16 7.88Q13.16 7.80 13.14 7.78Q13.12 7.76 13.12 7.68L13.12 7.68L12.88 7.60L12.84 7.64Q12.76 7.64 12.72 7.46Q12.68 7.28 12.68 7.32L12.68 7.32Q12.68 7.04 12.84 6.86Q13 6.68 13.18 6.58Q13.36 6.48 13.52 6.44Q13.68 6.40 13.64 6.40L13.64 6.40Q13.72 6.40 13.82 6.42Q13.92 6.44 14 6.44L14 6.44Q14.16 6.44 14.44 6.28Q14.72 6.12 14.98 5.88Q15.24 5.64 15.46 5.42Q15.68 5.20 15.80 5.08L15.80 5.08L16.04 4.76L16.36 4.52Q16.64 4.36 16.88 4.20Q17.12 4.04 17.32 4.04L17.32 4.04L16.76 4.88L17.28 5.08L17.20 5.28L16.80 5.40L16.52 5.72L16.84 5.92L16.88 6.20Q16.96 6.08 17.28 6.02Q17.60 5.96 17.68 5.84L17.68 5.84L17.96 5.44Q17.92 5.36 17.84 5.24L17.84 5.24Q17.68 5 17.68 4.92L17.68 4.92L17.56 4.80L17.20 4.84L17.84 3.84L17.96 3.44L18.40 3.28L18.92 0.20L19.04-0.20L18.92-0.36Q18.92-0.64 19-1.02Q19.08-1.40 19.16-1.78Q19.24-2.16 19.32-2.48Q19.40-2.80 19.40-3L19.40-3Q18.96-2.92 18.52-2.82Q18.08-2.72 17.52-2.64L17.52-2.64Q17.24-2.72 16.80-2.74Q16.36-2.76 15.94-2.82Q15.52-2.88 15.22-2.96Q14.92-3.04 14.92-3.24L14.92-3.24Q14.92-3.28 15-3.36L15-3.36Q14.68-3.92 14.54-4.58Q14.40-5.24 14.40-5.92L14.40-5.92Q14.40-6.20 14.40-6.46Q14.40-6.72 14.48-7L14.48-7L14.84-7.56Q14.84-7.72 14.88-7.76L14.88-7.76L15.08-7.84L15-7.72L15.36-8.12Q15.40-8.16 15.56-8.38Q15.72-8.60 15.80-8.64L15.80-8.64L16.04-8.96Q16.12-9.04 16.14-9.10Q16.16-9.16 16.20-9.20L16.20-9.20L16.28-9.28Q16.32-9.28 16.64-9.34Q16.96-9.40 17.34-9.48Q17.72-9.56 18.08-9.62Q18.44-9.68 18.56-9.68L18.56-9.68Q19.60-9.68 19.84-9.32Q20.08-8.96 20.08-8.72L20.08-8.72Q20-8.36 19.80-8.32Q19.60-8.28 19.28-8.08L19.28-8.08Q19.12-8.16 18.96-8.16L18.96-8.16Q18.40-8.16 17.86-7.40Q17.32-6.64 17.32-5.72L17.32-5.72Q17.32-5.56 17.44-5.10Q17.56-4.64 17.80-4.40L17.80-4.40L18.12-4.40Q18.76-4.56 19.12-4.64Q19.48-4.72 19.70-4.86Q19.92-5 20.04-5.26Q20.16-5.52 20.32-6.08L20.32-6.08Q20.32-6.88 20.58-7.74Q20.84-8.60 20.84-9.08L20.84-9.08Q20.84-9.28 20.86-9.46Q20.88-9.64 20.88-9.80L20.88-9.80Q20.88-9.88 20.84-10Q20.80-10.12 20.80-10.24L20.80-10.24Q20.80-10.36 20.88-10.40L20.88-10.40L22.32-10.92L22.48-10.92L22.56-10.84L22.60-11.16L23-11.08L23.24-11.12Q23.56-11.12 23.66-11.08Q23.76-11.04 24-10.84L24-10.84L24-10.72L24.12-10.60L24.16-7.64Q24.16-7.52 24.10-7.40Q24.04-7.28 24.04-7.24L24.04-7.24L23.88-6.40Q23.88-6.36 23.74-5.90Q23.60-5.44 23.40-5.12L23.40-5.12L22.92-3.56Q22.92-3.52 22.80-3.08Q22.68-2.64 22.68-2.44L22.68-2.44Q22.68-1.72 22.64-1.32Q22.60-0.92 22.56-0.74Q22.52-0.56 22.48-0.54Q22.44-0.52 22.44-0.52L22.44-0.52L22.24 1.28L22.84 1.04Q22.76 1.56 22.54 2Q22.32 2.44 22.32 2.96L22.32 2.96Q22.32 3.04 22.34 3.10Q22.36 3.16 22.36 3.24L22.36 3.24Q22.24 3.32 22.24 3.62Q22.24 3.92 22.04 4.12L22.04 4.12Q20.64 5.52 19.36 6.34Q18.08 7.16 17.04 7.96L17.04 7.96ZM16.48 5.28L16.24 5.36Q16.04 5.56 15.94 5.56Q15.84 5.56 15.76 5.64L15.76 5.64L14.96 6.64L15.24 6.68Q15.32 6.52 15.60 6.30Q15.88 6.08 15.96 6L15.96 6L16.48 5.28Z M26.04-4L26.16-4.28Q26.16-4.36 26.20-4.42Q26.24-4.48 26.28-4.56L26.28-4.56L26.40-4.68Q26.40-5.24 26.78-6.08Q27.16-6.92 27.64-7.24L27.64-7.24L27.96-7.40Q28.04-7.44 28.04-7.58Q28.04-7.72 28.08-7.80L28.08-7.80L28.24-8Q28.56-8.44 28.96-8.90Q29.36-9.36 29.74-9.72Q30.12-10.08 30.44-10.30Q30.76-10.52 31-10.52L31-10.52Q31.08-10.52 31.14-10.48Q31.20-10.44 31.48-10.36L31.48-10.36L31.92-9.80Q32.08-9.76 32.20-9.48L32.20-9.48L32.32-9.20L32.32-8.56L32.44-8.40Q32.52-8.32 32.56-8.26Q32.60-8.20 32.68-8.16L32.68-8.16L33.16-7.84Q33.20-7.68 33.40-7.44Q33.60-7.20 33.80-6.96L33.80-6.96L34.36-6.32Q34.44-6.20 34.52-5.88Q34.60-5.56 34.66-5.20Q34.72-4.84 34.76-4.54Q34.80-4.24 34.80-4.12L34.80-4.12L34.80-3.80L34.44-2.96L34.40-2.64L34-2.20L33.40-1.72Q33.20-1.60 32.88-1.60Q32.56-1.60 32.32-1.40L32.32-1.40L32-1.28Q31.76-1.12 31.60-1.12L31.60-1.12Q31.56-1.12 31.54-1.14Q31.52-1.16 31.48-1.16L31.48-1.16L31-1.08Q30.84-0.96 30.32-0.96L30.32-0.96Q30.04-0.96 29.88-1L29.88-1L28.96-1.24L28.04-1.56Q27.48-1.72 27.18-1.84Q26.88-1.96 26.52-2.64L26.52-2.64Q26.44-2.84 26.36-3.04Q26.28-3.24 26.20-3.36L26.20-3.36L26.04-4ZM29.40-3.88L29.44-2.92L29.64-2.88Q29.96-2.96 30.40-3.02Q30.84-3.08 31.04-3.20L31.04-3.20L31.44-3.48L31.76-3.84L31.88-4.20L31.40-6.04L30.72-6.32L30.60-6.24Q30.52-6.20 30.36-5.94Q30.20-5.68 30.02-5.32Q29.84-4.96 29.66-4.56Q29.48-4.16 29.40-3.88L29.40-3.88ZM28.16-6.28L27.96-6.44Q27.76-6.24 27.48-5.72Q27.20-5.20 27.20-4.80L27.20-4.80Q27.20-4.64 27.24-4.56L27.24-4.56L27.32-4.76L27.96-5.92Q28.12-6.16 28.16-6.28L28.16-6.28Z M36.40-4L36.52-4.28Q36.52-4.36 36.56-4.42Q36.60-4.48 36.64-4.56L36.64-4.56L36.76-4.68Q36.76-5.24 37.14-6.08Q37.52-6.92 38-7.24L38-7.24L38.32-7.40Q38.40-7.44 38.40-7.58Q38.40-7.72 38.44-7.80L38.44-7.80L38.60-8Q38.92-8.44 39.32-8.90Q39.72-9.36 40.10-9.72Q40.48-10.08 40.80-10.30Q41.12-10.52 41.36-10.52L41.36-10.52Q41.44-10.52 41.50-10.48Q41.56-10.44 41.84-10.36L41.84-10.36L42.28-9.80Q42.44-9.76 42.56-9.48L42.56-9.48L42.68-9.20L42.68-8.56L42.80-8.40Q42.88-8.32 42.92-8.26Q42.96-8.20 43.04-8.16L43.04-8.16L43.52-7.84Q43.56-7.68 43.76-7.44Q43.96-7.20 44.16-6.96L44.16-6.96L44.72-6.32Q44.80-6.20 44.88-5.88Q44.96-5.56 45.02-5.20Q45.08-4.84 45.12-4.54Q45.16-4.24 45.16-4.12L45.16-4.12L45.16-3.80L44.80-2.96L44.76-2.64L44.36-2.20L43.76-1.72Q43.56-1.60 43.24-1.60Q42.92-1.60 42.68-1.40L42.68-1.40L42.36-1.28Q42.12-1.12 41.96-1.12L41.96-1.12Q41.92-1.12 41.90-1.14Q41.88-1.16 41.84-1.16L41.84-1.16L41.36-1.08Q41.20-0.96 40.68-0.96L40.68-0.96Q40.40-0.96 40.24-1L40.24-1L39.32-1.24L38.40-1.56Q37.84-1.72 37.54-1.84Q37.24-1.96 36.88-2.64L36.88-2.64Q36.80-2.84 36.72-3.04Q36.64-3.24 36.56-3.36L36.56-3.36L36.40-4ZM39.76-3.88L39.80-2.92L40-2.88Q40.32-2.96 40.76-3.02Q41.20-3.08 41.40-3.20L41.40-3.20L41.80-3.48L42.12-3.84L42.24-4.20L41.76-6.04L41.08-6.32L40.96-6.24Q40.88-6.20 40.72-5.94Q40.56-5.68 40.38-5.32Q40.20-4.96 40.02-4.56Q39.84-4.16 39.76-3.88L39.76-3.88ZM38.52-6.28L38.32-6.44Q38.12-6.24 37.84-5.72Q37.56-5.20 37.56-4.80L37.56-4.80Q37.56-4.64 37.60-4.56L37.60-4.56L37.68-4.76L38.32-5.92Q38.48-6.16 38.52-6.28L38.52-6.28Z M55.60-7.68L55.52-8.20L55.72-8.68L55.84-8.48L55.76-8.32L55.84-7.92L56.04-7.92L56.36-8.88L56.32-9.08L56.04-9Q56.08-9.04 56.08-9.12L56.08-9.12Q56.08-9.20 56.04-9.24Q56-9.28 55.92-9.48L55.92-9.48L56.20-10.20L56.20-10.52Q56.20-10.72 56.36-10.72L56.36-10.72L56.32-11.28L56.44-11.28Q56.52-11.28 56.64-11.40L56.64-11.40L57.76-11.28L58.12-11.44L58.64-11.28L58.80-11.40L58.92-11.32L59.12-11.32L59.80-10.76L59.80-10.64L60.24-10.40Q60.28-10.28 60.36-10.12Q60.44-9.96 60.44-9.88L60.44-9.88L60.48-9.76L60.36-9.68L60.28-9.20Q60.28-9.08 60.16-8.90Q60.04-8.72 60.04-8.56L60.04-8.56L59.88-7.72Q59.88-7.60 59.68-7.20Q59.48-6.80 59.48-6.64L59.48-6.64L59.48-6.12Q59.48-5.96 59.24-5.34Q59-4.72 59-3.96L59-3.96L59-3.64Q59-3.56 58.96-3.56L58.96-3.56L58.92-3.60Q58.84-3.64 58.84-3.64L58.84-3.64L58.84-3.60L58.64-3.32L58.64-2.44L58.48-2.04L58.64-1.20L58.64-0.64Q58.64-0.36 58.60-0.14Q58.56 0.08 58.48 0.08L58.48 0.08L58.28 0.08Q57.88 0.28 57.46 0.24Q57.04 0.20 56.48 0.56L56.48 0.56L56.28 0.56Q55.84 0.56 55.60 0.36L55.60 0.36L54.60-0.28L54.60-1.64Q53.96-1.24 53.48-0.92Q53-0.60 52-0.52L52-0.52L51.12-0.44L50.80-0.48L50.60-0.36L50.52-0.56Q50.44-0.56 50.26-0.58Q50.08-0.60 49.96-0.60L49.96-0.60L49.84-0.60Q49.60-0.60 49.20-0.78Q48.80-0.96 48.42-1.26Q48.04-1.56 47.76-1.96Q47.48-2.36 47.44-2.80L47.44-2.80L47.16-3.64L47.36-4.20L47.40-5.20Q47.40-5.32 47.44-5.52Q47.48-5.72 47.52-5.84L47.52-5.84Q47.52-5.88 47.50-5.94Q47.48-6 47.48-6.04L47.48-6.04L47.64-6.56L47.64-6.64L47.64-6.92Q47.64-7.08 47.68-7.12L47.68-7.12L47.80-7.36Q47.84-7.48 47.86-7.74Q47.88-8 47.88-8.08L47.88-8.08L48-8.40L48.36-9L48.36-9.24Q48.44-9.56 48.52-10.06Q48.60-10.56 49.04-10.56L49.04-10.56Q49.36-10.56 49.74-10.32Q50.12-10.08 50.44-9.74Q50.76-9.40 50.98-9.04Q51.20-8.68 51.20-8.44L51.20-8.44Q51.20-8.04 51-7.64Q50.80-7.24 50.80-6.64L50.80-6.64L50.84-6.40L50.24-3.80L50.40-3.32Q50.48-3.12 50.56-2.92Q50.64-2.72 50.88-2.72L50.88-2.72Q52.04-2.72 53.02-3.12Q54-3.52 54.64-4.32L54.64-4.32L54.76-4.48Q54.76-4.56 54.76-4.66Q54.76-4.76 54.80-4.84L54.80-4.84Q54.84-4.96 54.88-5.04L54.88-5.04L54.96-4.88L55.80-5.48Q55.76-5.56 55.78-5.62Q55.80-5.68 55.68-5.76L55.68-5.76Q55.56-5.64 55.48-5.64L55.48-5.64Q55.52-5.64 55.12-5.72L55.12-5.72Q55.12-6.12 55.32-6.34Q55.52-6.56 55.56-6.76L55.56-6.76L55.52-6.76Q55.40-6.76 55.28-7L55.28-7Q55.20-7 55.16-6.96Q55.12-6.92 55.08-6.92L55.08-6.92Q55.16-7.04 55.38-7.30Q55.60-7.56 55.60-7.68L55.60-7.68ZM55.72-6L55.72-6Q55.80-5.96 55.80-5.96L55.80-5.96Q55.92-5.96 55.98-6.16Q56.04-6.36 56.24-6.80L56.24-6.80Q56.08-6.80 55.90-6.50Q55.72-6.20 55.72-6ZM55.56-7L55.56-7.20L55.44-7.20L55.40-7.16Q55.40-7.16 55.56-7L55.56-7ZM55.84-7.44L55.88-7.36L55.96-7.60L55.84-7.44Z M66.68-4.40L66.72-4.48Q66.96-4.48 67.10-4.60Q67.24-4.72 67.32-4.84Q67.40-4.96 67.50-5.08Q67.60-5.20 67.76-5.20L67.76-5.20Q68.28-5.20 68.74-5.62Q69.20-6.04 69.20-7.60L69.20-7.60L69.20-8.36Q69.20-8.56 69.04-8.72Q68.88-8.88 68.80-8.88L68.80-8.88Q68.76-8.84 68.52-8.72Q68.28-8.60 68-8.42Q67.72-8.24 67.44-8.04Q67.16-7.84 67-7.64L67-7.64L67-7.24Q66.92-6.60 66.68-5.84Q66.44-5.08 66.44-4.40L66.44-4.40L66.68-4.40ZM72.44-5.88L72.44-5.64L71.92-5.04L71.68-4.88Q71.24-4.68 70.84-4.46Q70.44-4.24 70.04-4.12L70.04-4.12L69.88-3.96L69.68-3.96Q69.44-3.96 69.38-3.80Q69.32-3.64 69.08-3.60L69.08-3.60Q68.64-3.52 68.52-3.44Q68.40-3.36 68.40-3.32L68.40-3.32Q68.44-3.24 68.44-3.24L68.44-3.24Q68.44-3.20 68.30-3.16Q68.16-3.12 68-3.10Q67.84-3.08 67.72-3.06Q67.60-3.04 67.64-3.04L67.64-3.04L67.44-3.04Q67.32-2.92 66.80-2.88Q66.28-2.84 65.96-2.64L65.96-2.64L66.20-1.68Q66.40-1.60 66.74-1.52Q67.08-1.44 67.44-1.40Q67.80-1.36 68.12-1.34Q68.44-1.32 68.60-1.32L68.60-1.32Q69.16-1.32 69.70-1.38Q70.24-1.44 70.84-1.44L70.84-1.44Q71.40-1.44 71.92-1.34Q72.44-1.24 72.92-0.92L72.92-0.92L72.92-0.64Q72.92-0.44 72.90-0.18Q72.88 0.08 72.76 0.16L72.76 0.16L72.60 0.24Q72.56 0.28 72.28 0.34Q72 0.40 71.64 0.48Q71.28 0.56 70.90 0.62Q70.52 0.68 70.32 0.68L70.32 0.68Q69.52 0.68 68.74 0.70Q67.96 0.72 67.16 0.72L67.16 0.72Q66.56 0.72 65.86 0.52Q65.16 0.32 64.54-0.04Q63.92-0.40 63.46-0.92Q63-1.44 62.88-2.08L62.88-2.08L63-2.36Q63-2.44 63.04-2.68Q63.08-2.92 63.12-3.24L63.12-3.24L63.12-3.60L63.40-3.60L63.44-3.64Q63.44-3.88 63.48-3.92L63.48-3.92Q63.48-3.96 63.42-4.02Q63.36-4.08 63.36-4.16L63.36-4.16Q63.36-4.20 63.48-4.28L63.48-4.28L63.52-4.80Q63.52-4.96 63.54-5.16Q63.56-5.36 63.72-5.68L63.72-5.68L63.84-5.76Q63.84-5.92 63.68-6.08L63.68-6.08Q63.80-6.12 63.84-6.32Q63.88-6.52 63.96-6.52L63.96-6.52Q64-6.52 64-6.50Q64-6.48 64.04-6.48L64.04-6.48L64.20-6.36Q64.24-6.40 64.24-6.40L64.24-6.40L64.36-6.40Q64.48-6.40 64.48-6.48L64.48-6.48Q64.48-6.68 64.30-6.82Q64.12-6.96 64.12-7.16L64.12-7.16Q64.12-7.24 64.16-7.28L64.16-7.28Q64.16-7.36 64.12-7.40Q64.08-7.44 64.08-7.48L64.08-7.48L64.20-7.52Q64.44-8.12 64.74-8.44Q65.04-8.76 65.40-9.08L65.40-9.08L65.60-9.20Q66.16-9.56 66.70-10Q67.24-10.44 67.92-10.44L67.92-10.44Q68.60-10.44 69.38-10.30Q70.16-10.16 70.88-10.16L70.88-10.16Q71.84-9.68 71.98-9.58Q72.12-9.48 72.20-9.48L72.20-9.48L72.16-9.08L72.48-8.84L72.60-8.60L72.32-8.24L72.56-7.92L72.32-7.56Q72.24-7.48 72.24-7.36Q72.24-7.24 72.24-7.16L72.24-7.16L72.28-7.12L72.32-6.92L72.24-6.48L72.52-6.36L72.52-6.12L72.36-6L72.44-5.88ZM72.52-7.28L72.52-7.28L72.60-7.28Q72.68-7.28 72.68-7.16L72.68-7.16Q72.68-7 72.52-7L72.52-7Q72.44-7 72.44-7.16L72.44-7.16Q72.44-7.28 72.52-7.28ZM72.68-6.72L72.68-6.72Q72.68-6.56 72.60-6.56L72.60-6.56Q72.52-6.56 72.52-6.72L72.52-6.72Q72.52-6.80 72.56-6.80L72.56-6.80Q72.60-6.80 72.68-6.72Z"></path></g>
        </svg>
      </g><g opacity="1" transform="rotate(0 93.91809999999998 0)">
        <svg width="180.0001" height="180.0001" x="93.91809999999998" y="0" version="1.1" preserveAspectRatio="none" viewBox="0 0 100 100">
          <g transform="matrix(-1 0 0 1 100 0)" class="aDFQBjvS2colors-0"><g><rect x="-192" width="185" height="99"></rect><rect y="-36" width="100" height="30"></rect><line stroke-miterlimit="10" x1="8" y1="-14.5" x2="18" y2="-14.5"></line><line stroke-miterlimit="10" x1="-179" y1="16.5" x2="-162" y2="16.5"></line><g><g><g><rect x="-170.802" y="31.318" width="8.721" height="8.642"></rect><path d="M-164.455,42.312h4.747v-4.703h-4.747V42.312z M-159.266,42.749h-5.63V37.17h5.63V42.749      L-159.266,42.749z M-166.221,44.062h8.279v-8.203h-8.279V44.062L-166.221,44.062z M-157.5,44.5h-9.163v-9.079h9.163V44.5      L-157.5,44.5z"></path><polygon points="-166.149,44.133 -166.292,43.991 -158.013,35.787 -157.871,35.929     "></polygon></g></g></g><rect x="-179" y="58" width="35" height="32.5"></rect><rect x="-136.5" y="58" width="35" height="32.5"></rect><rect x="-94" y="58" width="35" height="32.5"></rect><rect x="-50" y="58" width="35" height="32.5"></rect><rect x="-126.514" y="34.815" width="10.261" height="10.185"></rect><rect x="-126.477" y="31.766" width="0.522" height="2.337"></rect><rect x="-116.812" y="31.766" width="0.523" height="2.337"></rect><rect x="-127" y="32.337" width="11.233" height="0.572"></rect><g><rect x="-83.805" y="33.844" width="10.305" height="10.156"></rect><rect x="-76.809" y="28.707" width="3.308" height="3.261"></rect></g><rect x="-178.5" y="22.5" stroke-miterlimit="10" width="30" height="30"></rect><rect x="-136.5" y="22.5" stroke-miterlimit="10" width="30" height="30"></rect><rect x="-93.5" y="22.5" stroke-miterlimit="10" width="30" height="30"></rect><rect x="-49.5" y="22.5" stroke-miterlimit="10" width="30" height="30"></rect></g><path d="M99.012,23H31.315C30.771,23,30,23.17,30,23.714v30.235c0,0.543-0.466,0.986-1,0.986s-1-0.443-1-0.986V27.082  C28,26.539,27.938,26,27.396,26H25.65C25.106,26,25,26.539,25,27.082v2.157C25,29.783,24.217,30,23.673,30H9.759  c-0.543,0-1.215,0.495-1.492,0.963L0.504,44.099C0.227,44.566,0,45.451,0,45.994v20.303C0,66.842,0.444,67,0.988,67h4.851  c0.028-3,1.272-6.207,3.511-8.438C11.601,56.322,14.59,55,17.766,55h0.054c3.187,0,6.329,1.413,8.572,3.677  C28.635,60.941,30,64.086,30,67.273C30,67.277,30,67,30,67h36.467c0.072-3,1.305-6.162,3.502-8.35c2.252-2.24,5.24-3.65,8.416-3.65  h0.055c6.465,0,11.711,6,11.861,12h8.711c0.545,0,0.988-0.158,0.988-0.703V23.714C100,23.17,99.557,23,99.012,23z"></path><path d="M78.43,57.381c-0.016,0-0.029,0-0.045,0c-5.414,0-9.816,4.377-9.839,9.797c-0.024,5.436,4.36,9.86,9.796,9.883  c0.016,0,0.029,0,0.045,0c5.413,0,9.815-4.377,9.84-9.797C88.249,61.83,83.863,57.404,78.43,57.381z M78.359,71.605  c-0.006,0-0.014,0-0.021,0c-2.422-0.024-4.362-2.011-4.339-4.433c0.023-2.414,1.998-4.354,4.411-4.338c0.007,0,0.013,0,0.021,0  c2.422,0.024,4.363,2.01,4.34,4.433C82.746,69.682,80.771,71.62,78.359,71.605z"></path><path d="M17.81,57.381c-0.014,0-0.029,0-0.044,0c-5.414,0-9.815,4.377-9.839,9.797c-0.023,5.436,4.362,9.86,9.797,9.883  c0.015,0,0.029,0,0.044,0c5.413,0,9.815-4.377,9.839-9.797C27.631,61.83,23.245,57.404,17.81,57.381z M17.741,71.605  c-0.007,0-0.014,0-0.02,0c-2.422-0.024-4.364-2.011-4.339-4.433c0.026-2.414,1.998-4.354,4.411-4.338c0.007,0,0.013,0,0.02,0  c2.422,0.024,4.364,2.01,4.339,4.433C22.127,69.682,20.153,71.62,17.741,71.605z"></path></g>
        </svg>
      </g><g opacity="1" transform="rotate(0 36.776 241.00009999999997)">
        <svg width="294.2843" height="33" x="36.776" y="241.00009999999997" version="1.1" preserveAspectRatio="none" viewBox="2 -30.16 333.15999999999997 37.36">
          <g transform="matrix(1 0 0 1 0 0)" class="aKej0kaogpcolor"><path d="M2-25L13.16-25Q17.88-25 20.40-23.90Q22.92-22.80 23.96-20.14Q25-17.48 25-12.48L25-12.48Q25-7.48 23.96-4.84Q22.92-2.20 20.40-1.10Q17.88 0 13.16 0L13.16 0L2 0L2-25ZM10-18.76L10-6.24L13.28-6.24Q15.04-6.24 15.72-6.78Q16.40-7.32 16.40-8.76L16.40-8.76L16.40-16.24Q16.40-17.68 15.72-18.22Q15.04-18.76 13.28-18.76L13.28-18.76L10-18.76Z M64.80-5.24Q68.12-5.24 71.92-6.28L71.92-6.28L72.88-0.76Q68.76 0.60 64 0.60L64 0.60Q58.56 0.60 55.98-1.98Q53.40-4.56 53.40-10L53.40-10Q53.40-15.48 55.96-18.04Q58.52-20.60 64-20.60L64-20.60Q67.68-20.60 69.68-19.98Q71.68-19.36 72.54-17.90Q73.40-16.44 73.40-13.80L73.40-13.80Q73.40-11.36 72.28-9.92Q71.16-8.48 68.70-7.84Q66.24-7.20 62-7.20L62-7.20L62-5.40Q62.84-5.24 64.80-5.24L64.80-5.24ZM64.76-14.80Q63.20-14.80 62.60-14.48Q62-14.16 62-13.28L62-13.28L62-11.20L63.44-11.20Q65-11.20 65.60-11.56Q66.20-11.92 66.20-12.88L66.20-12.88L66.20-14.80L64.76-14.80Z M111-5.72Q112.04-5.52 112.96-5.44L112.96-5.44L112.60-0.04Q110.04 0.60 108.16 0.60L108.16 0.60Q105.52 0.60 104.26-0.46Q103-1.52 103-3.76L103-3.76L103-26L111-26.60L111-5.72Z M141.12 0L141.12 0ZM141.36-19L149.36-20L149.36 0L141.36 0L141.36-19ZM145.36-21.68Q143.68-21.68 142.78-22.04Q141.88-22.40 141.50-23.30Q141.12-24.20 141.12-25.88L141.12-25.88Q141.12-28.32 142.02-29.24Q142.92-30.16 145.36-30.16L145.36-30.16Q147.76-30.16 148.66-29.24Q149.56-28.32 149.56-25.88L149.56-25.88Q149.56-24.24 149.18-23.34Q148.80-22.44 147.92-22.06Q147.04-21.68 145.36-21.68L145.36-21.68Z M177.48-20L185.28-20L187.84-7L188.24-7L190.80-20L198.60-20L194.04 0L182.04 0L177.48-20Z M237.32-5.24Q240.64-5.24 244.44-6.28L244.44-6.28L245.40-0.76Q241.28 0.60 236.52 0.60L236.52 0.60Q231.08 0.60 228.50-1.98Q225.92-4.56 225.92-10L225.92-10Q225.92-15.48 228.48-18.04Q231.04-20.60 236.52-20.60L236.52-20.60Q240.20-20.60 242.20-19.98Q244.20-19.36 245.06-17.90Q245.92-16.44 245.92-13.80L245.92-13.80Q245.92-11.36 244.80-9.92Q243.68-8.48 241.22-7.84Q238.76-7.20 234.52-7.20L234.52-7.20L234.52-5.40Q235.36-5.24 237.32-5.24L237.32-5.24ZM237.28-14.80Q235.72-14.80 235.12-14.48Q234.52-14.16 234.52-13.28L234.52-13.28L234.52-11.20L235.96-11.20Q237.52-11.20 238.12-11.56Q238.72-11.92 238.72-12.88L238.72-12.88L238.72-14.80L237.28-14.80Z M279.52-20L281.72-17.36Q284.08-19.84 287.64-20.60L287.64-20.60L288.12-12.84Q287.20-12.76 285.68-12.22Q284.16-11.68 283.52-11.24L283.52-11.24L283.52 0L275.52 0L275.52-20L279.52-20Z M327.36-20L335.16-20L330.80-2Q329.96 1.52 328.68 3.50Q327.40 5.48 325.34 6.34Q323.28 7.20 319.96 7.20L319.96 7.20Q317.28 7.20 315.16 6.56L315.16 6.56L315.52 2.36L320.32 1.76Q321.44 1.60 322.00 1.30Q322.56 1 322.86 0.36Q323.16-0.28 323.40-1.60L323.40-1.60L323.48-2L318.80-2L314.44-20L322.24-20L324.60-9L325.00-9L327.36-20Z"></path></g>
        </svg>
      </g></svg>